<?xml version="1.0" encoding="utf-8"?>
<svg id="master-artboard" viewBox="0 0 157.6377716064453 153.89151000976562" xmlns="http://www.w3.org/2000/svg" width="157.6377716064453px" height="153.89151000976562px"><rect id="ee-background" x="0" y="0" width="157.6377716064453" height="153.89151000976562" style="fill: white; fill-opacity: 0; pointer-events: none;"/><g transform="matrix(0.5632512569427491, 0, 0, 0.5632512569427491, -592.5060424804688, -22.193452364791582)"><path d="M1133.6,58.6C1133.2,57.6,1132.8,58.7,1133.6,58.6L1133.6,58.6z M1130.2,62.1c0,1.8,0.4,4.1-1.4,4.2&#10;&#9;&#9;c-0.4-1-1.1-1.7-2.1-2.1c-0.3,2.2,2.1,1.6,1.4,4.2h0.7C1130.2,66.5,1132.7,64.3,1130.2,62.1z M1132.3,50.2&#10;&#9;&#9;c-0.1,1.7,0.4,2.9,1.4,3.5C1133.8,52,1133.3,50.8,1132.3,50.2z M1159.4,122.8c-0.1,0.6,0.3,0.7,0.7,0.7&#10;&#9;&#9;C1160.3,122.9,1159.9,122.8,1159.4,122.8z M1214.5,85.8C1214.7,87.9,1217.4,85.1,1214.5,85.8L1214.5,85.8z M1221.5,74.6h1.4&#10;&#9;&#9;C1223.4,72.3,1221.5,73.6,1221.5,74.6z M1206.2,90.7c-0.4,0.6-0.7,1.1-0.7,2.1h0.7C1206.7,92.2,1207.3,90.9,1206.2,90.7z&#10;&#9;&#9; M1218,74.6c-1.7-0.1-2.2,1.1-3.5,1.4c0.4,1-0.8,3.6,0.7,3.5C1214.2,76,1217.4,76.5,1218,74.6z M1130.2,90.7&#10;&#9;&#9;c-3.1-1.3-6.4-2.4-8.4-4.9C1122.9,89.1,1125.3,91.1,1130.2,90.7z M1220.1,73.9c-2.7,0.1-0.3-0.6-0.7-2.1c-1.6,1.4-0.8-0.2-2.1-0.7&#10;&#9;&#9;c-0.6,2,1,1.8,0.7,3.5C1219,74.7,1220,74.8,1220.1,73.9z M1205.5,92.8c-0.6-0.1-0.7,0.3-0.7,0.7&#10;&#9;&#9;C1205.4,93.6,1205.4,93.2,1205.5,92.8z M1158.8,122.1c-0.1,0.6,0.3,0.7,0.7,0.7C1159.6,122.2,1159.2,122.1,1158.8,122.1z&#10;&#9;&#9; M1220.8,90.7c-0.6-0.1-0.7,0.3-0.7,0.7C1220.7,91.5,1220.8,91.1,1220.8,90.7z M1220.1,91.4c-0.6-6-2.3,2.9-5.2,4.1&#10;&#9;&#9;C1217.6,95.1,1218.8,93.1,1220.1,91.4z M1219.4,71.8C1221.5,71.7,1218.8,69,1219.4,71.8L1219.4,71.8z M1204.8,93.5&#10;&#9;&#9;c-1.7-0.1-2.2,1.1-2.8,2.1C1203.7,95.7,1204.2,94.5,1204.8,93.5z M1220.8,90.7C1221.8,90.2,1220.7,89.8,1220.8,90.7L1220.8,90.7z&#10;&#9;&#9; M1126.7,92.8C1125.7,93.2,1126.7,93.6,1126.7,92.8L1126.7,92.8z M1119,69.1c0,1.2,0.5,1.8,1.4,2.1&#10;&#9;&#9;C1120.4,70,1119.9,69.3,1119,69.1z M1123.2,68.4c-0.1,0.6,0.3,0.7,0.7,0.7C1124,68.5,1123.6,68.4,1123.2,68.4z M1217.3,66.3&#10;&#9;&#9;c-0.2,0.8-1.4,0.5-1.4,1.4C1217.4,68.5,1219.3,66.6,1217.3,66.3z M1122.5,67.7c-0.1,0.6,0.3,0.7,0.7,0.7&#10;&#9;&#9;C1123.3,67.8,1122.9,67.7,1122.5,67.7z M1121.1,65.6c0,1.2,0.5,1.8,1.4,2.1C1122.5,66.5,1122,65.9,1121.1,65.6z M1209.7,71.1h-0.7&#10;&#9;&#9;c-0.5,0.6-0.8,1.6-0.7,2.8h0.7C1208.9,72.7,1209.8,72.5,1209.7,71.1z M1126.7,64.2C1126.2,63.2,1125.8,64.2,1126.7,64.2&#10;&#9;&#9;L1126.7,64.2z M1123.9,69.1c-0.1,0.6,0.3,0.7,0.7,0.7C1124.7,69.2,1124.3,69.1,1123.9,69.1z M1214.5,73.9c-0.8-0.1-1.2,0.2-1.4,0.7&#10;&#9;&#9;c0.8,0.2,0.5,1.4,1.4,1.4C1215.9,74.3,1214.6,68.2,1214.5,73.9z M1213.1,67.7c-2.1-0.7,0.8-1.9,0.7-2.8c-0.4,0-0.8-0.6,0-0.7v-1.4&#10;&#9;&#9;c-2-1.3,1-3.6,0.7-5.6h-0.7c-1.2,1.1-0.9,3.7-2.1,4.9c0.1-0.8-0.2-1.2-0.7-1.4c1.6,4.1-0.2,7.3-1.4,10.5&#10;&#9;&#9;C1211.2,70.4,1211.6,68.4,1213.1,67.7z M1123.9,75.3c0.3,0.6,0.6,1.2,1.4,1.4C1125.5,75.5,1124.7,75.4,1123.9,75.3z M1215.9,67.7&#10;&#9;&#9;c-0.6-0.1-0.7,0.3-0.7,0.7C1215.8,68.5,1215.9,68.1,1215.9,67.7z M1121.8,79.5c-0.9,1.7,2.8,2.2,0.7,2.8c-0.4-0.4-3.3-1.6-3.5,0&#10;&#9;&#9;c3.6-0.2,4.9,2.1,7,3.5C1124.9,83.4,1124,80.8,1121.8,79.5z M1120.4,71.1c-0.1,0.8,0.2,1.2,0.7,1.4&#10;&#9;&#9;C1121.2,71.7,1120.9,71.3,1120.4,71.1z M1121.1,72.5c0.1,1.8,1,2.7,2.8,2.8C1123.3,74.1,1122.3,73.2,1121.1,72.5z M1178.3,69.1&#10;&#9;&#9;c-2.3,0.4-0.3-5.5,0.7-6.3c-0.4,0-0.8-0.6,0-0.7c0-1.2,1.9-4.1,0-4.9c-1.2,4.4-2.1,9.1-3.5,13.2c-1.1-6.5,2.1-14.5-0.7-18.1v10.5&#10;&#9;&#9;c-1.3,0-2.4-3.6-3.5-1.4c3.9,1,4.1,6.9,2.8,11.2C1175.9,71.8,1177.4,70.8,1178.3,69.1z M1181.8,66.3&#10;&#9;&#9;C1184.8,66.4,1182,63.5,1181.8,66.3L1181.8,66.3z M1209.7,65.6c-3.1,2.8-2.4-3.4-3.5-2.1c-0.6,2.4,1,2.7,0.7,4.9&#10;&#9;&#9;C1208.1,67.7,1209,66.8,1209.7,65.6z M1206.9,68.4h-0.7c-0.4,1.4-1.1,1.5-2.1,0.7c0.4,1.9,1.4,3.3,2.8,4.2&#10;&#9;&#9;C1206.1,71.3,1206.1,70.3,1206.9,68.4z M1199.2,80.2c-1,0.6-2.2,1-2.1,2.8C1198.1,82.4,1199.3,82,1199.2,80.2z M1181.1,61.4&#10;&#9;&#9;c-1.1-0.2-1.2,0.7-2.1,0.7v0.7C1180.2,62.8,1180.8,62.3,1181.1,61.4z M1211.1,60.7C1210.6,59.7,1210.2,60.8,1211.1,60.7&#10;&#9;&#9;L1211.1,60.7z M1199.9,79.5c-0.6-0.1-0.7,0.3-0.7,0.7C1199.8,80.3,1199.9,79.9,1199.9,79.5z M1204.1,69.1&#10;&#9;&#9;C1204.2,66,1201.3,68.9,1204.1,69.1L1204.1,69.1z M1215.9,65.6c-0.6-0.1-0.7,0.3-0.7,0.7C1215.8,66.4,1215.9,66,1215.9,65.6z&#10;&#9;&#9; M1167.1,73.9v0.7c1.3-0.1,1.5,0.9,2.8,0.7C1169.7,74.1,1168.7,73.7,1167.1,73.9z M1216.6,64.9c-0.6-0.1-0.7,0.3-0.7,0.7&#10;&#9;&#9;C1216.5,65.7,1216.6,65.3,1216.6,64.9z M1181.8,60.7C1184.7,61.4,1181.9,58.6,1181.8,60.7L1181.8,60.7z M1215.2,56.5&#10;&#9;&#9;c-0.6-0.1-0.7,0.3-0.7,0.7C1215.1,57.3,1215.2,56.9,1215.2,56.5z M1220.8,63.5c-2-0.1-3.5,0.2-4.2,1.4&#10;&#9;&#9;C1218.6,65,1220.2,64.7,1220.8,63.5z M1215.2,56.5C1216.3,56.1,1215.2,55.7,1215.2,56.5L1215.2,56.5z M1199.2,76.7&#10;&#9;&#9;C1201.3,76.6,1198.5,73.8,1199.2,76.7L1199.2,76.7z M1181.8,66.3c-1.7-0.1-2.2,1.1-2.8,2.1C1180.7,68.5,1181.2,67.3,1181.8,66.3z&#10;&#9;&#9; M1203.4,62.8C1204.4,62.4,1203.3,61.9,1203.4,62.8L1203.4,62.8z M1192.9,71.8C1195,71,1192.2,68.1,1192.9,71.8L1192.9,71.8z&#10;&#9;&#9; M1204.1,57.9c-0.4,0.6-0.7,1.1-0.7,2.1h0.7C1204.6,59.4,1205.2,58.1,1204.1,57.9z M1215.2,66.3c-1.2,0-1.8,0.5-2.1,1.4&#10;&#9;&#9;C1214.3,67.7,1215,67.1,1215.2,66.3z M1179,73.9C1179.6,71,1176.9,73.8,1179,73.9L1179,73.9z M1202.7,57.9&#10;&#9;&#9;c-1.8-0.2-1.8,1.5-2.1,2.8C1202,60.5,1202,58.8,1202.7,57.9z M1203.4,62.8h-0.7C1202.8,63.6,1203.4,63.2,1203.4,62.8z M1179,68.4&#10;&#9;&#9;c-0.6-0.1-0.7,0.3-0.7,0.7C1178.9,69.2,1178.9,68.8,1179,68.4z M1201.3,78.1c-0.6-0.1-0.7,0.3-0.7,0.7&#10;&#9;&#9;C1201.2,78.9,1201.3,78.5,1201.3,78.1z M1199.2,76.7c-0.6,0.3-1.2,0.6-1.4,1.4C1199,78.4,1199.1,77.6,1199.2,76.7z M1200.6,78.8&#10;&#9;&#9;c-0.6-0.1-0.7,0.3-0.7,0.7C1200.5,79.6,1200.6,79.2,1200.6,78.8z M1197.8,78.1c-1.2,0-1.8,0.5-2.1,1.4&#10;&#9;&#9;C1196.9,79.5,1197.5,79,1197.8,78.1z M1201.3,78.1C1204,77.9,1201.2,75.1,1201.3,78.1L1201.3,78.1z M1163.6,80.2&#10;&#9;&#9;c0,1.4-1.9,0.9-1.4,2.8C1164,83.7,1165.3,80.7,1163.6,80.2z M1155.3,60.7C1155.9,57.8,1153.2,60.5,1155.3,60.7L1155.3,60.7z&#10;&#9;&#9; M1215.9,61.4c-0.5-1.8,2.7-3.2,0.7-4.2c-0.6,1.7-1.9,2.7-2.1,4.9h0.7C1215.3,61.7,1215.3,61.3,1215.9,61.4z M1147.6,53.7&#10;&#9;&#9;c-0.8,0.1-0.6,1.3-0.7,2.1C1147.7,55.7,1147.5,54.5,1147.6,53.7z M1156.7,57.9c-0.2,1.2,0.7,3.5-1.4,2.8c0.8,2.9-1.5,2.7-1.4,4.9&#10;&#9;&#9;c1.3-0.8,2.4-1.8,3.5-2.8C1154.5,64.1,1159.5,56.6,1156.7,57.9z M1163.6,61.4C1164.6,61,1163.6,60.5,1163.6,61.4L1163.6,61.4z&#10;&#9;&#9; M1153.9,65.6h-0.7c-0.5,0.6-0.8,1.6-0.7,2.8h0.7C1153.1,67.1,1154,66.9,1153.9,65.6z M1159.4,61.4c-1.2,0-1.8,0.5-2.1,1.4&#10;&#9;&#9;C1158.6,62.8,1159.2,62.3,1159.4,61.4z M1146.2,46c1.8,0.4,2.4-4,1.4-4.2c-0.9,1.1-0.5,5.1-2.8,2.8c0,2.3,2,2.7,1.4,5.6&#10;&#9;&#9;c-0.6-0.1-0.7-0.7-1.4-0.7c0.8,2.1,1.5,7.3-0.7,8.4c0.1,3.9-1.9,5.5-1.4,9.8c0.9-4.4,3.3-7.4,4.2-11.9&#10;&#9;&#9;C1144.6,53.5,1149.2,47.1,1146.2,46z M1165.7,73.2c0,0.7,0.9,0.5,1.4,0.7C1167.1,73.3,1166.3,73.4,1165.7,73.2z M1141.3,53.7&#10;&#9;&#9;c0.8,0.2,0.5,1.4,1.4,1.4C1143.5,53.7,1141.6,51.8,1141.3,53.7z M1134.3,55.1c0.1,1.1-0.3,2.7,0.7,2.8&#10;&#9;&#9;C1135,56.8,1135.4,55.2,1134.3,55.1z M1148.3,49.5c0,1.6-1.2,2.1-0.7,4.2h0.7C1147.5,51.9,1150.4,50.4,1148.3,49.5z M1214.9,95.5&#10;&#9;&#9;c-0.3,0-0.7,0.1-1.1,0.1C1214.2,95.7,1214.6,95.6,1214.9,95.5z M1163.6,61.4c-0.7,0-0.5,0.9-0.7,1.4&#10;&#9;&#9;C1163.6,62.8,1163.5,61.9,1163.6,61.4z M1143.4,47.4c0,1.2,0.5,1.8,1.4,2.1C1144.8,48.3,1144.3,47.7,1143.4,47.4z M1214.5,62.1&#10;&#9;&#9;c-0.6-0.1-0.7,0.3-0.7,0.7C1214.3,62.7,1214.7,62.7,1214.5,62.1z M1157.4,75.3h-0.7c0.3,1.7-1.3,1.5-0.7,3.5&#10;&#9;&#9;C1157,78.2,1157.5,77.1,1157.4,75.3z M1133.6,53.7c-0.1,0.8,0.2,1.2,0.7,1.4C1134.5,54.3,1134.2,53.9,1133.6,53.7z M1158.1,73.9&#10;&#9;&#9;c-0.7,0-0.5,0.9-0.7,1.4C1158,75.3,1157.9,74.5,1158.1,73.9z M1213.8,64.9c0.6,0.1,0.7-0.3,0.7-0.7h-0.7V64.9z M1162.2,83&#10;&#9;&#9;c-0.6-0.1-0.7,0.3-0.7,0.7C1162.1,83.8,1162.2,83.4,1162.2,83z M1165.7,73.2C1165.6,71.2,1162.8,73.9,1165.7,73.2L1165.7,73.2z&#10;&#9;&#9; M1215.2,62.1v1.4c0.8-0.2,3.5-2.4,0.7-2.1C1216.1,62,1215.7,62,1215.2,62.1z M1161.5,83.7c-1.5-3.7-3.1,4.8-1.4,6.3&#10;&#9;&#9;C1159.5,86.7,1161.1,85.8,1161.5,83.7z M1162.9,62.8c-0.7,0-0.5,0.9-0.7,1.4C1162.9,64.2,1162.8,63.3,1162.9,62.8z M1214.5,64.2&#10;&#9;&#9;c0.6,0.1,0.7-0.3,0.7-0.7C1214.6,63.4,1214.6,63.8,1214.5,64.2z M1162.2,64.2c-0.7,0-0.5,0.9-0.7,1.4h0.7V64.2z M1162.2,71.8&#10;&#9;&#9;C1165.1,72.5,1162.4,69.8,1162.2,71.8L1162.2,71.8z M1160.1,71.1c0.8-2.4,5.2-1.3,6.3-3.5c-2.1-0.6-4.2,2.2-4.9,0.7&#10;&#9;&#9;c0.4-1.8,6.5-1.3,4.2-3.5c-1,1.6-1.7,1.1-3.5,0.7c0,0.4-0.6,0.8-0.7,0h-0.7c0.1,1.7,0.1,3.4-1.4,3.5c0-1,0.3-5.7-0.7-3.5&#10;&#9;&#9;c0.1,4.2,0.9,5.4-0.7,8.4c0.7-1.3,3.2-1,4.2-2.1C1161.2,71.9,1160.3,72,1160.1,71.1z M1166.4,67.7&#10;&#9;&#9;C1167.4,67.2,1166.4,66.8,1166.4,67.7L1166.4,67.7z M1142.7,55.1c-0.2,1.6,0.2,2.6,1.4,2.8C1144,56.6,1143.6,55.6,1142.7,55.1z&#10;&#9;&#9; M1113.4,163.2c1.1,1,3.6,0.6,4.2,2.1c-1.7-0.1-2.2,1.1-2.8,2.1c2.6-0.3,3-2.9,5.6-1.4c-2.2-2.2-5.2-3.7-8.4-4.9&#10;&#9;&#9;C1112.3,162,1113.3,162.2,1113.4,163.2z M1112,161.1C1111.9,159,1109.1,161.8,1112,161.1L1112,161.1z M1106.4,163.9&#10;&#9;&#9;c1.4-0.2,2.2,0.1,2.1,1.4c0.7-1.6,3.8-0.8,4.9-2.1C1111.3,163.6,1107.4,162.3,1106.4,163.9z M1121.1,161.8c0,2,1.6,2.6,2.8,3.5&#10;&#9;&#9;C1123.8,163.3,1122.3,162.7,1121.1,161.8z M1146.2,164.6h-0.7C1145.6,165.4,1146.2,165,1146.2,164.6z M1106.4,167.4&#10;&#9;&#9;c0.1-1.3,2.3-0.5,2.1-2.1C1107.3,165.1,1104.4,166.6,1106.4,167.4z M1151.8,198.1C1151.6,196,1148.9,198.7,1151.8,198.1&#10;&#9;&#9;L1151.8,198.1z M1151.8,198.1c-0.7,0.9-1.9,1.4-2.1,2.8c2.3-0.2,3.1-2,6.3-1.4v-0.7C1153.8,199.3,1153.4,198.1,1151.8,198.1z&#10;&#9;&#9; M1128.8,179.9c0.6,0.1,0.7-0.3,0.7-0.7C1128.9,179.1,1128.8,179.5,1128.8,179.9z M1155.3,206.4c0.2-0.9,1.7-0.6,2.8-0.7&#10;&#9;&#9;C1158.2,204,1152.3,205.4,1155.3,206.4z M1144.8,164.6C1138.8,163.7,1141.8,166.7,1144.8,164.6L1144.8,164.6z M1128.8,179.9&#10;&#9;&#9;C1127.8,180.4,1128.8,180.8,1128.8,179.9L1128.8,179.9z M1138.5,192.5c1.6,0.2,2.6-0.2,2.8-1.4C1140,191.2,1139,191.6,1138.5,192.5&#10;&#9;&#9;z M1144.8,164.6h0.7C1145.4,163.8,1144.8,164.2,1144.8,164.6z M1151.8,212C1150.8,212.5,1151.8,212.9,1151.8,212L1151.8,212z&#10;&#9;&#9; M1100.2,149.3c0.6,0.1,0.7-0.3,0.7-0.7C1100.3,148.4,1100.2,148.8,1100.2,149.3z M1089.7,147.2c-0.6,2,1,1.8,0.7,3.5&#10;&#9;&#9;c-1.6-0.5-1.9-2.3-3.5-2.8c-0.2,1.1,0.7,1.2,0.7,2.1c-1-0.1-2-0.1-2.1,0.7c3.3,0.1,5.9,1.1,9.1,1.4&#10;&#9;&#9;C1092.5,150.9,1090.9,149.3,1089.7,147.2z M1093.9,155.5c1.2-0.6,1.3-2.4,2.1-3.5h-1.4C1094.9,153.7,1093.3,153.6,1093.9,155.5z&#10;&#9;&#9; M1087.6,143C1088,144,1088.5,142.9,1087.6,143L1087.6,143z M1068.8,132.5c0.6,0.1,0.7-0.3,0.7-0.7&#10;&#9;&#9;C1068.9,131.7,1068.8,132.1,1068.8,132.5z M1096,152c2.2-0.1,4.2-0.5,4.2-2.8h-0.7C1099.3,151.1,1096.5,150.5,1096,152z&#10;&#9;&#9; M1087.6,156.9c3.3-0.3,4,0.3,2.1,2.1c1.9-0.7,4-1.1,4.2-3.5C1093.4,157.1,1085.8,155.3,1087.6,156.9z M1128.1,152.7&#10;&#9;&#9;c0.6,0.4,1.1,0.7,2.1,0.7c0-0.7-0.6-0.8-0.7-1.4C1128.7,151.9,1128.2,152.2,1128.1,152.7z M1137.8,159.7&#10;&#9;&#9;C1137.7,157.6,1134.9,160.4,1137.8,159.7L1137.8,159.7z M1116.9,156.9c1.2-0.4,2.9-0.4,3.5-1.4&#10;&#9;&#9;C1119.1,155.8,1116.2,154.6,1116.9,156.9z M1123.2,154.1c1.4-0.7,3-1.2,3.5-2.8C1126.2,153.4,1113.4,152,1123.2,154.1z&#10;&#9;&#9; M1120.4,155.5c1.6,0.2,2.6-0.2,2.8-1.4C1121.9,154.2,1120.9,154.6,1120.4,155.5z M1066.7,135.3c0.2-1.4,1.9-1.4,2.1-2.8&#10;&#9;&#9;C1067.3,132.2,1064.9,134.6,1066.7,135.3z M1129.5,189.7c0.8-0.1,2,0.1,2.1-0.7C1130.7,189.1,1129.6,188.9,1129.5,189.7z&#10;&#9;&#9; M1245.2,177.9c-0.6-0.1-0.7,0.3-0.7,0.7C1245.1,178.7,1245.2,178.3,1245.2,177.9z M1245.2,177.9&#10;&#9;&#9;C1246.2,177.4,1245.2,177,1245.2,177.9L1245.2,177.9z M1137.1,45.3c0.8,4.5,0.5,11.6,0.7,14.6C1139.2,56.1,1138.8,48.4,1137.1,45.3&#10;&#9;&#9;z M1156,120c0.6,1,1,2.2,2.8,2.1C1158.1,121,1157.7,119.8,1156,120z M1244.5,178.5c-0.8-0.1-1.2,0.2-1.4,0.7&#10;&#9;&#9;C1243.9,179.4,1244.4,179.1,1244.5,178.5z M1189.4,61.4C1190.2,57.7,1187.3,60.6,1189.4,61.4L1189.4,61.4z M1195,59.3&#10;&#9;&#9;c0.2,1.6-0.1,2.7-0.7,3.5C1196.4,63.9,1196.2,59.2,1195,59.3z M1228.5,78.8c-0.4,0.6-0.7,1.1-0.7,2.1h0.7&#10;&#9;&#9;C1229,80.4,1229.6,79,1228.5,78.8z M1190.8,52.3c0.9,4.3,2.5,4.8,0.7,9.1C1194.8,59.1,1193.1,54.5,1190.8,52.3z M1190.8,64.2&#10;&#9;&#9;c-0.1-1.3,0.9-1.5,0.7-2.8c-0.9,0.8-1.1,0.3-2.1,0C1189.5,62.7,1189.9,63.7,1190.8,64.2z M1232,205&#10;&#9;&#9;C1232.4,206.1,1232.8,205,1232,205L1232,205z M1221.5,208.5c0.6,0.1,0.7-0.3,0.7-0.7C1221.6,207.7,1221.6,208.1,1221.5,208.5z&#10;&#9;&#9; M1221.5,208.5C1220.5,209,1221.6,209.4,1221.5,208.5L1221.5,208.5z M1222.2,207.8c0.6,0.1,0.7-0.3,0.7-0.7&#10;&#9;&#9;C1222.3,207,1222.3,207.4,1222.2,207.8z M1177.6,215.5C1176.6,215.9,1177.7,216.4,1177.6,215.5L1177.6,215.5z M1229.9,190.4&#10;&#9;&#9;C1232.8,191.1,1230,188.3,1229.9,190.4L1229.9,190.4z M1173.4,215.5c0.2-0.8,1.4-0.5,1.4-1.4&#10;&#9;&#9;C1173.4,213.3,1171.5,215.2,1173.4,215.5z M1226.4,205.7C1227.9,207.9,1230.9,204.9,1226.4,205.7L1226.4,205.7z M1235.5,194.6&#10;&#9;&#9;C1235,193.6,1234.6,194.7,1235.5,194.6L1235.5,194.6z M1229.9,190.4h-1.4v0.7C1229.3,191.2,1229.7,190.9,1229.9,190.4z M1241,193.2&#10;&#9;&#9;c-2,0-2.6,1.6-3.5,2.8C1239.2,195.5,1240.8,195,1241,193.2z M1239,203.7c-0.1-1.8-1-2.7-2.8-2.8&#10;&#9;&#9;C1236.8,202.1,1237.7,203,1239,203.7z M1158.8,212c-0.3-1.3,2.1-3-0.7-2.8C1158.1,210.3,1157.7,211.9,1158.8,212z M1232,205&#10;&#9;&#9;c-0.3-2-1.5-3.2-3.5-3.5v0.7C1230.1,202.7,1230.4,204.6,1232,205z M1225,83c1.2-0.4,4.1,0.8,4.2-0.7c-2,0.2-2.4-0.2-1.4-1.4&#10;&#9;&#9;C1226.5,81.2,1224.8,81.2,1225,83z M1122.5,101.1c1.3,0.3,1.3,2,3.5,1.4c-1-0.8-1.7-2-3.5-2.1V101.1z M1122.5,100.4&#10;&#9;&#9;C1122.3,97.7,1119.4,100.6,1122.5,100.4L1122.5,100.4z M1128.8,97c-0.5,1.4-0.4,4.5-2.1,2.8c-0.5,1.9,1.4,1.4,1.4,2.8h-2.1&#10;&#9;&#9;c1.5,1.5,4.3,1.8,5.6,3.5c0.1-1.3-0.9-1.5-0.7-2.8C1126.4,103.6,1130.7,97.9,1128.8,97z M1128.8,109.5c-0.1,1.5,0.6,2.2,2.1,2.1&#10;&#9;&#9;C1130.5,110.6,1129.8,109.9,1128.8,109.5z M1126,99c-0.1,0.6,0.3,0.7,0.7,0.7C1126.8,99.1,1126.4,99.1,1126,99z M1124.6,96.3&#10;&#9;&#9;c-0.2,1.6,0.2,2.6,1.4,2.8C1125.9,97.7,1125.5,96.7,1124.6,96.3z M1096.7,97c1,0.4,1.7,1.1,2.1,2.1c0.4,0,0.8,0.6,0,0.7&#10;&#9;&#9;c2.2,0.8,2.2,3.9,4.2,4.9v-1.4C1101.1,101.4,1099.6,95.4,1096.7,97z M1100.9,90C1101.5,87.1,1098.8,89.8,1100.9,90L1100.9,90z&#10;&#9;&#9; M1128.1,108.8c-0.1,0.6,0.3,0.7,0.7,0.7C1128.9,108.9,1128.5,108.8,1128.1,108.8z M1098.1,90c-0.1,1.5,0.6,2.2,2.1,2.1&#10;&#9;&#9;C1099.8,91.1,1099.1,90.4,1098.1,90z M1113.4,115.8c0.3,2.2-1.9,1.8-2.1,3.5C1113.1,119.6,1115.3,116.8,1113.4,115.8z&#10;&#9;&#9; M1148.3,130.4v-0.7C1147.5,129.9,1147.9,130.4,1148.3,130.4z M1125.3,106.7c-0.2,1.8,1.5,1.8,2.8,2.1&#10;&#9;&#9;C1127.9,107.4,1126.2,107.4,1125.3,106.7z M1134.3,113c-1.3-0.3-1.8-1.5-3.5-1.4c1.1,1.9,3.7,2.3,4.9,4.2c-0.4-3.8-1.5-6.8-3.5-9.1&#10;&#9;&#9;C1132,109.8,1134.2,110.3,1134.3,113z M1160.1,128.3C1161.2,127.9,1160.1,127.5,1160.1,128.3L1160.1,128.3z M1160.1,128.3&#10;&#9;&#9;c-0.6-0.1-0.7,0.3-0.7,0.7C1160,129.2,1160.1,128.8,1160.1,128.3z M1151.8,119.3v2.8c0.4,0,0.8,0.6,0,0.7c0.4,1,1.1,1.7,2.1,2.1&#10;&#9;&#9;C1155.1,122.5,1152.4,121.7,1151.8,119.3z M1160.1,125.5c-1.7-0.1-2.2,1.1-2.8,2.1C1159.1,127.8,1159.5,126.6,1160.1,125.5z&#10;&#9;&#9; M1154.6,112.3c0,1.8-0.5,0.9-1.4,0.7c-0.2,1.2,2,3.5,0,4.2c0.1-0.6-0.3-0.7-0.7-0.7c0.3,2,2.4,2.3,3.5,3.5&#10;&#9;&#9;C1153.8,117.9,1155.6,114.2,1154.6,112.3z M1153.2,113C1153.3,109.9,1150.4,112.8,1153.2,113L1153.2,113z M1150.4,121.4&#10;&#9;&#9;c-0.1,0.6,0.3,0.7,0.7,0.7C1151.2,121.5,1150.8,121.4,1150.4,121.4z M1069.5,131.8c0.8,0.1,1.2-0.2,1.4-0.7&#10;&#9;&#9;C1070.1,131,1069.6,131.3,1069.5,131.8z M1131.6,106c-0.1,0.6,0.3,0.7,0.7,0.7C1132.4,106.1,1132,106.1,1131.6,106z M1131.6,102.5&#10;&#9;&#9;c-0.6-0.1-0.7,0.3-0.7,0.7C1131.4,103.4,1131.5,103,1131.6,102.5z M1135.7,115.8c0.5,1.8,0.7,4,2.1,4.9&#10;&#9;&#9;C1137.6,118.6,1137.4,116.4,1135.7,115.8z M1150.4,121.4C1150,120.3,1149.5,121.4,1150.4,121.4L1150.4,121.4z M1131.6,102.5&#10;&#9;&#9;C1134.5,103.2,1131.7,100.4,1131.6,102.5L1131.6,102.5z M1151.1,122.1c-0.1,0.6,0.3,0.7,0.7,0.7v-0.7H1151.1z M1059,101.8&#10;&#9;&#9;c0.4,0,0.8,0.6,0,0.7V101.8c-2.4,0.1-2.3-2.4-4.2-2.8c0.9,4,5.1,4.7,9.8,4.9c-2.8-0.7-4.5-2.5-6.3-4.2&#10;&#9;&#9;C1058.1,100.9,1059,100.9,1059,101.8z M1063.9,116.5C1061,115.8,1063.8,118.6,1063.9,116.5L1063.9,116.5z M1060.4,117.9&#10;&#9;&#9;c-1.4,2.5-4.2-0.2-5.6,1.4c2.6,1.5,4.4-0.3,7.7,0C1062.2,118.4,1061.6,117.8,1060.4,117.9z M1058.3,117.2c0.1,0.8,1.3,0.6,2.1,0.7&#10;&#9;&#9;C1060.3,117.1,1059.1,117.3,1058.3,117.2z M1066.7,101.1C1066.8,98.1,1064,100.9,1066.7,101.1L1066.7,101.1z M1068.1,101.8&#10;&#9;&#9;C1070.2,99.6,1067.3,96.6,1068.1,101.8L1068.1,101.8z M1068.8,127.6c-0.5-0.7-1.3-1.1-2.1-1.4&#10;&#9;&#9;C1066.4,127.7,1067.7,127.6,1068.8,127.6z M1078.6,94.9C1079.6,94.4,1078.5,94,1078.6,94.9L1078.6,94.9z M1070.9,131.1&#10;&#9;&#9;c0.8,0.6,1.9,0.9,3.5,0.7c-1-1.3-3-1.6-4.2-2.8C1070,130.2,1070.8,130.2,1070.9,131.1z M1058.3,117.2&#10;&#9;&#9;C1057.9,116.2,1057.5,117.2,1058.3,117.2L1058.3,117.2z M1098.8,99.7V99C1091.9,98.3,1095.3,101,1098.8,99.7z M1073.7,127.6&#10;&#9;&#9;C1073.5,124.9,1070.6,127.8,1073.7,127.6L1073.7,127.6z M1069.5,128.3c-0.1,0.6,0.3,0.7,0.7,0.7&#10;&#9;&#9;C1070.3,128.4,1069.9,128.4,1069.5,128.3z M1068.8,127.6c-0.1,0.6,0.3,0.7,0.7,0.7C1069.6,127.7,1069.2,127.7,1068.8,127.6z&#10;&#9;&#9; M1091.8,107.4c-1.3-0.6-2.6-1.2-4.2-1.4c-0.3,2.2,3.5,0.3,2.8,2.8c2.1,0.5,2.1-1.2,4.2-0.7c0.3,0.6,0.6,1.2,1.4,1.4&#10;&#9;&#9;c-2.1-3-5.1-5.1-6.3-9.1C1089.1,103.6,1092.5,106.4,1091.8,107.4z M1097.4,104.6C1098,101.7,1095.3,104.5,1097.4,104.6&#10;&#9;&#9;L1097.4,104.6z M1087.6,106C1087.2,105,1086.8,106.1,1087.6,106L1087.6,106z M1078.6,94.9c-1,0.6-2.2,1-2.1,2.8&#10;&#9;&#9;C1077.5,97,1078.7,96.6,1078.6,94.9z M1089,110.2c0.2-0.8,1.4-0.5,1.4-1.4C1089,108,1087.1,109.9,1089,110.2z M1099.5,108.1&#10;&#9;&#9;c1,2,2.6,3.5,4.9,4.2C1103.2,110.4,1101.6,109,1099.5,108.1z M1097.4,104.6c0.2,1.6,0.7,3,2.1,3.5&#10;&#9;&#9;C1099.2,106.5,1098.8,105.1,1097.4,104.6z M1076.5,103.9c0,1.2,0.5,1.8,1.4,2.1C1077.9,104.8,1077.3,104.2,1076.5,103.9z&#10;&#9;&#9; M1077.9,106c-0.1,0.6,0.3,0.7,0.7,0.7C1078.7,106.1,1078.3,106.1,1077.9,106z M1097.4,117.2c-2-0.2-2.1,1.6-4.2,1.4&#10;&#9;&#9;c0.2-1.6-0.2-2.6-1.4-2.8c0.2,1.6,1.4,2.9,0,4.2C1093.9,119.3,1096.6,119.1,1097.4,117.2z M1076.5,97.7c-0.6-0.1-0.7,0.3-0.7,0.7&#10;&#9;&#9;C1076.4,98.5,1076.4,98.1,1076.5,97.7z M1086.2,119.3C1086.1,117.2,1083.3,119.9,1086.2,119.3L1086.2,119.3z M1084.8,102.5&#10;&#9;&#9;c-1.3-0.1-1.5,0.9-2.8,0.7c0.1,0.8-1,0.4,0,0c0.1-0.6,0.7-0.7,0.7-1.4c-1.7-0.1-2.2,1.1-3.5,1.4v3.5&#10;&#9;&#9;C1080.3,104.5,1083.8,104.8,1084.8,102.5z M1181.8,60.7c-0.6-0.1-0.7,0.3-0.7,0.7C1181.7,61.5,1181.7,61.1,1181.8,60.7z&#10;&#9;&#9; M1087.6,128.3c0.5,0.2,1.4,0,1.4,0.7c0.5,0.2,1.4,0,1.4,0.7h2.1c0-0.9-1.2-0.6-1.4-1.4c-0.5-0.2-1.4,0-1.4-0.7&#10;&#9;&#9;c-0.5-0.2-1.4,0-1.4-0.7h-1.4C1087.1,127.5,1087.6,127.6,1087.6,128.3z M1075.1,111.6c-0.1,0.6,0.3,0.7,0.7,0.7&#10;&#9;&#9;C1075.9,111.7,1075.5,111.6,1075.1,111.6z M1086.2,126.2c-0.1,0.6,0.3,0.7,0.7,0.7C1087,126.3,1086.6,126.3,1086.2,126.2z&#10;&#9;&#9; M1075.1,124.2c-0.1,0.6,0.3,0.7,0.7,0.7C1075.9,124.3,1075.5,124.2,1075.1,124.2z M1086.2,126.2v-0.7h-1.4&#10;&#9;&#9;C1084.8,126.2,1085.7,126.1,1086.2,126.2z M1073.7,110.2c-0.3,1.2,0.5,1.3,1.4,1.4C1074.8,111,1074.5,110.4,1073.7,110.2z&#10;&#9;&#9; M1220.1,95.6C1221.1,95.1,1220,94.7,1220.1,95.6L1220.1,95.6z M1144.8,139.5c0.5,0.2,0.8,0.6,0.7,1.4c0.5,0.2,0.8,0.6,0.7,1.4&#10;&#9;&#9;c0.9,0,0.6,1.2,1.4,1.4c-0.7-4.1-0.8-5.8,0.7-9.1c-1.7,1.7-2.9,1.3-3.5,2.8c0.8-0.1,0.4,1,0,0c-0.7,0-0.5,0.9-0.7,1.4&#10;&#9;&#9;C1144.5,138.8,1144.9,138.9,1144.8,139.5z M1080.6,114.4c-0.8-3-1.4-5.6-1.4-7.7h-0.7c-1.1,7-4.1-4.1-2.8-8.4&#10;&#9;&#9;c-1.6-0.4,1.5-8.2-0.7-7c0,1.8,0.4,4.6-1.4,2.8c0.8,3.9,1.6,7.7,1.4,12.6c-4.4,0.4-6.6-1.3-7-4.9c-0.6-0.1-0.7-0.7-1.4-0.7&#10;&#9;&#9;c0,1.8-0.5,0.9-1.4,0.7c-0.4,1.5,1.3,1,1.4,2.1c0.8-0.1,0.4,1,0,0h-2.1c2.1,1.6,5.4,2,7,4.2C1076,106,1078.6,111.8,1080.6,114.4z&#10;&#9;&#9; M1148.3,130.4c-0.1,0.6,0.3,0.7,0.7,0.7v-0.7H1148.3z M1075.8,124.8c-0.3,1.2,0.5,1.3,1.4,1.4&#10;&#9;&#9;C1076.8,125.6,1076.5,125,1075.8,124.8z M1071.6,108.1c-0.1,0.6,0.3,0.7,0.7,0.7C1072.4,108.2,1072,108.2,1071.6,108.1z&#10;&#9;&#9; M1073,109.5c-0.1,0.6,0.3,0.7,0.7,0.7C1073.8,109.6,1073.4,109.5,1073,109.5z M1194.3,139.5c-1.2-0.3-1.3,0.5-1.4,1.4&#10;&#9;&#9;C1193.7,140.7,1194,140.1,1194.3,139.5z M1149.7,193.2c0,0.7,0.9,0.5,1.4,0.7v-0.7H1149.7z M1128.1,176.5c0.1,0.8,1.3,0.6,2.1,0.7&#10;&#9;&#9;C1130,176.3,1128.9,176.6,1128.1,176.5z M1142,159.7c-0.3,1.6-3.7,0.5-4.2,0c-0.2,0.9-1.2,1.1-1.4,2.1c2.4-0.2,4-1.1,7-0.7v-0.7&#10;&#9;&#9;C1142.8,160.3,1142.7,159.7,1142,159.7z M1236.9,181.3c0.1-0.6-0.3-0.7-0.7-0.7C1236,181.2,1236.4,181.3,1236.9,181.3z&#10;&#9;&#9; M1172.7,100.4C1172.3,99.4,1171.9,100.5,1172.7,100.4L1172.7,100.4z M1078.6,131.1c-0.6-0.1-0.7,0.3-0.7,0.7&#10;&#9;&#9;C1078.4,132,1078.5,131.6,1078.6,131.1z M1154.6,127.6c0.5,0.9,1.5,1.3,2.8,1.4v-1.4c-1.6-0.5-1.9-2.3-3.5-2.8&#10;&#9;&#9;c-0.2,1.1,0.7,1.2,0.7,2.1C1155,126.9,1155.4,127.5,1154.6,127.6z M1185.9,81.6c-0.1,1.7,1.1,2.2,2.1,2.8&#10;&#9;&#9;C1188.2,82.7,1187,82.2,1185.9,81.6z M1088.3,138.1c0.4-1,2.7-0.1,2.8-1.4c-5.7,0.8-11.8-4.2-14.6,0c3.3,0.3,4.5-1.4,6.3,0.7&#10;&#9;&#9;c1.5-0.4,4.5-1.7,4.9,0.7c-1.2,0-1.8,0.5-2.1,1.4c1.6,0.3-0.1,3.8,2.1,3.5c0.3-1.7-1.3-1.5-0.7-3.5c2.7,0.1,5.1,0,6.3-1.4&#10;&#9;&#9;C1091,137.2,1089.3,140.2,1088.3,138.1z M1139.9,158.3v0.7c0.6,0.4,1.1,0.7,2.1,0.7C1141.7,158.9,1141.1,158.3,1139.9,158.3z&#10;&#9;&#9; M1082,138.8c0.1-0.6,0.7-0.7,0.7-1.4c-1.5-0.4-1,1.3-2.1,1.4c-0.2-0.9-1.4-0.7-1.4,0c0.4,1.2,3.3-0.1,3.5,1.4&#10;&#9;&#9;c-1.4,0.4-4.6-0.9-4.9,0.7c2.9-0.1,4.2,0.2,4.2,3.5c0.1-2.7,2.1-3.5,3.5-4.9C1083.6,140.1,1083.7,138.5,1082,138.8z M1135.7,156.9&#10;&#9;&#9;v0.7c2.1-0.5,2.1,1.2,4.2,0.7C1139.3,157.1,1137.7,156.8,1135.7,156.9z M1134.3,156.2c0,0.7,0.9,0.5,1.4,0.7&#10;&#9;&#9;C1135.7,156.3,1134.9,156.4,1134.3,156.2z M1130.2,153.4v0.7c1.5,0.6,2.1,2.1,4.2,2.1C1133.4,154.8,1132.1,153.9,1130.2,153.4z&#10;&#9;&#9; M1211.8,76h0.7c-0.1-4.3,0.4-5.1,2.8-7.7c-2.6,0.5-3.7,2.4-4.2,4.9C1212.1,73.4,1211.7,74.9,1211.8,76z M1199.9,113.7&#10;&#9;&#9;c0.6,0.1,0.7-0.3,0.7-0.7C1200,112.9,1199.9,113.3,1199.9,113.7z M1223.6,76c0.1-0.8-0.2-1.2-0.7-1.4c-0.4,0.6-0.7,1.1-0.7,2.1&#10;&#9;&#9;C1222.9,76.7,1223,76.2,1223.6,76z M1221.5,74.6c-0.6-0.1-0.7,0.3-0.7,0.7C1221.2,75.3,1221.6,75.2,1221.5,74.6z M1211.1,76.7&#10;&#9;&#9;c0.6,0.1,0.7-0.3,0.7-0.7C1211.2,75.9,1211.1,76.3,1211.1,76.7z M1198.5,115.1c1.2,0.3,1.3-0.5,1.4-1.4&#10;&#9;&#9;C1199.3,114,1198.7,114.3,1198.5,115.1z M1200.6,113c0.6,0.1,0.7-0.3,0.7-0.7h-0.7V113z M1186.6,132.5c-1.5-0.1-0.3,2.5-0.7,3.5&#10;&#9;&#9;C1187.5,136.1,1186.3,133.5,1186.6,132.5z M1183.2,126.2c0.1-0.6-0.3-0.7-0.7-0.7C1182.3,126.1,1182.7,126.2,1183.2,126.2z&#10;&#9;&#9; M1185.9,129c-0.1,0.6,0.3,0.7,0.7,0.7C1186.8,129.1,1186.4,129.1,1185.9,129z M1196.4,119.3c0.7,0,0.5-0.9,0.7-1.4&#10;&#9;&#9;C1196.4,117.9,1196.6,118.7,1196.4,119.3z M1197.8,116.5c0.7,0,0.5-0.9,0.7-1.4C1197.8,115.1,1198,115.9,1197.8,116.5z&#10;&#9;&#9; M1197.1,117.9c0.7,0,0.5-0.9,0.7-1.4C1197.1,116.5,1197.3,117.3,1197.1,117.9z M1152.5,68.4c-0.7,0-0.5,0.9-0.7,1.4&#10;&#9;&#9;C1152.3,69.6,1152.6,69.2,1152.5,68.4z M1139.9,80.2c0.2,0.9,1.7,0.6,2.8,0.7C1142.5,80,1141,80.3,1139.9,80.2z M1144.8,85.1&#10;&#9;&#9;c-0.1,0.6,0.3,0.7,0.7,0.7C1145.6,85.2,1145.2,85.1,1144.8,85.1z M1135,88.6c-2-3.2,2-6.4,2.8-9.1c0.9,0,1,0.9,2.1,0.7&#10;&#9;&#9;c-0.1-1.8-2.7-1-2.8-2.8h-1.4c2.4,4.4-3.5,6.1-2.1,11.9C1134.2,89.1,1135,89.3,1135,88.6z M1211.1,73.2c-0.8,0.1-0.6,1.3-0.7,2.1&#10;&#9;&#9;C1211.2,75.2,1211.1,74.2,1211.1,73.2z M1127.4,71.8c0.6-0.8,0.9-1.9,0.7-3.5h-0.7c0.1,1,0.1,2-0.7,2.1&#10;&#9;&#9;C1126.8,71,1126.7,71.8,1127.4,71.8z M1143.4,83c-1.7,0.2,0.8,1.9,1.4,2.1C1144.8,83.9,1144.3,83.3,1143.4,83z M1126,70.5h0.7&#10;&#9;&#9;c-0.5-2.2-1.5-4.1-2.8-5.6c-0.5,2.6,1.5,2.7,1.4,4.9C1125.7,69.8,1126.1,69.9,1126,70.5z M1180.4,81.6c0-0.7-0.9-0.5-1.4-0.7&#10;&#9;&#9;C1179,81.6,1179.8,81.5,1180.4,81.6z M1140.6,69.8c-1.2-3-2.6-5.7-3.5-9.1c-1,2.1-0.9-2.7-2.1-2.8c0,1.8-0.5,0.9-1.4,0.7&#10;&#9;&#9;c0.8,3.4,3.5,4.8,4.2,8.4C1139.6,67,1138.8,69.7,1140.6,69.8z M1179,80.9c0-0.7-0.9-0.5-1.4-0.7C1177.6,80.9,1178.4,80.8,1179,80.9&#10;&#9;&#9;z M1153.9,71.1c-0.1-1.1,0.3-2.7-0.7-2.8C1153.2,69.5,1152.8,71,1153.9,71.1z M1125.3,69.8h-0.7c0.6,1.2,0.2,3.5,1.4,4.2v-3.5&#10;&#9;&#9;C1125.5,70.4,1125.1,70.3,1125.3,69.8z M1118.3,152.7c0.4-0.6,0.7-1.1,0.7-2.1h-0.7C1117.8,151.2,1117.2,152.6,1118.3,152.7z&#10;&#9;&#9; M1223.6,161.1c0.6-0.3,1.2-0.6,1.4-1.4C1223.8,159.5,1223.7,160.3,1223.6,161.1z M1225,159.7c1.2,0,1.8-0.5,2.1-1.4&#10;&#9;&#9;C1225.9,158.3,1225.3,158.8,1225,159.7z M1209,168.8c-0.8,0.1-0.6,1.3-0.7,2.1C1209.1,170.8,1208.9,169.6,1209,168.8z M1209,168.8&#10;&#9;&#9;C1210,168.4,1208.9,167.9,1209,168.8L1209,168.8z M1222.2,163.2h0.7c0.4-0.6,0.7-1.1,0.7-2.1C1222.8,161.4,1222.2,162,1222.2,163.2&#10;&#9;&#9;z M1117.6,172.3c2,0.2,2.1-1.6,4.2-1.4c1.5,2.2,2.1,3.7,4.2,3.7c0.6,0.4,1.1,2,2.1,1.9c0.3-1.5,3.8-0.7,3.5,0.7h-1.4&#10;&#9;&#9;c0.2,1.1-0.7,1.2-0.7,2.1c5-4.1,6,1.6,8,1.6c0.8,1.5,4.9,0.8,5.1,3c3.5,1,6.3,5.3,7.1,8c-0.1,1-5,0.4-2.8,1.4h2.8&#10;&#9;&#9;c0.2-0.5,0.6-0.8,1.4-0.7v0.7c0.4,0,0.8,0.6,0,0.7c3.4,2.2,9.5-2.2,10.5,2.8c-1.9,0.6-4.2,0.9-5.6,2.1c0.4,0,0.8,0.6,0,0.7&#10;&#9;&#9;c-1.9,3-5.3,4.5-7,7.7c5.6-2.3,7.6-8.2,13.9-9.8c3.7,4.2,13.5,2.3,14.6,9.1c-5.2-6.4-13.9-0.7-19.5-0.7c1.9,3.4-5.3,2.9-7,4.9&#10;&#9;&#9;c0.7-0.9,1.6,1.2,0.7,1.4c2.7,0.8,3.5-2.6,6.3-2.8c5.8-5.3,17.5-6.2,20.9,2.1c-4.1-0.5-1.3,1.8-4.2,2.8c1.2,0.5,0.1,1.3,0,2.1&#10;&#9;&#9;c2.2,0.6,1-2.3,2.8-2.1v1.4c0.9-0.1,2.1,2.8,2.8,0.7c-1.5-0.6-4.1-3.6-1.4-4.2c3.1,2.7,3.3,7.2,3.5,11.2&#10;&#9;&#9;c1.2,25.4,0.3,58.7-2.1,86.5c5.1,1.3,12.2,0.7,17.4,0c-2.1-14.6-3.3-34.9-2.8-51.6c0.2-7.3-2-13.8-2.1-19.5&#10;&#9;&#9;c-0.1-4.5,1.6-8.5,2.1-13.2c0.2-1.7-0.4-3.3,0-4.9c1.4-5.7,7.5-15.9,12.6-19.5c3.2-2.3,12,2.9,16,4.9c-0.1,0.6-0.7,0.7-0.7,1.4&#10;&#9;&#9;c2.7-2.4,1.6,3,3.5,0.7c-0.9-0.2-0.9-2.1,0-2.1c-1.7-1.3-4.3-1.7-5.6-3.5c-0.5-0.2-1.4,0-1.4-0.7c0.5,0.2,1.4,0,1.4,0.7&#10;&#9;&#9;c2.4-0.3,4.5-1,7.7-0.7c-0.2-1-2.1-0.2-2.1-1.4c-4.2-0.5-10.2,0.9-13.2-0.7c5.4-0.6,9.1-2.1,13.2,0.7h7c2.6,0.8-0.3,5.2,2.1,4.9&#10;&#9;&#9;c0.4-1.2-0.8-4.1,0.7-4.2c-2.9-1.4,1.2-2.5,1.4-4.9c-1.7-0.1-0.2-2.4,0-2.8c-1.5-0.4-1,1.3-2.1,1.4c0.5,0.6,0.8,1.6,0.7,2.8&#10;&#9;&#9;c-2.2-0.3-1.6,2.1-4.2,1.4c0.3-2.2-0.9-2.8-2.1-3.5c-0.5,2.1,1.9,1.3,1.4,3.5c-4,0-7.3-0.6-9.1-2.8c0.7-2.6,4-2.5,6.3-3.5&#10;&#9;&#9;c-2.9-0.1-0.1-0.5,0-1.4c-0.4,0-0.8-0.6,0-0.7c1.6-4.1-2.6-2.5-2.8-4.9c5.5-0.4,8-4.1,13.2-1.4c-0.7-2.3,1-2.3,2.8-2.1&#10;&#9;&#9;c2.7,0.1,4.2-0.4,4.2-1.4c-1.8,0-4.6,0.4-2.8-1.4c-1.2,0-1.8,0.5-2.1,1.4c0.8-0.1,0.4,1,0,0c-1.6,0-2.1,1.2-4.2,0.7&#10;&#9;&#9;c0,0.9,1.2,0.6,1.4,1.4c-1.8,0.7-5.4-2-2.1-2.1c-0.6-1.2-5.9-0.7-5.4-3.1c2.8-0.6,16.7-7,17.9-10.1c-5.6,2.3-11.1,4.7-16.7,7&#10;&#9;&#9;c0.1,0.8-1,0.4,0,0c1.7-5,6-7.5,8.4-11.9c6.2-3.5,14.3,1.6,20.2-3.5c2.7,1.7,5.2,3.6,9.1,4.2c1.9,1.8,4.5,6.7,7,5.6&#10;&#9;&#9;c-1.2-0.9-2.7-1.4-2.8-3.5c-0.4,0-0.8-0.1-0.7-0.7c0.4,0,0.8,0.1,0.7,0.7c8.9-0.1,13.6,4.1,16.7,9.8c-3.6-9.7-12.8-13.7-20.9-18.8&#10;&#9;&#9;c3.6-2.3,8.7-1.3,14.6-2.8c5.6-1.4,8.9-5.9,18.1-4.2c2.6-3.5,11.5-4.2,14.6-4.9c0.4-1.7,3.3-0.1,3.5,0.7h4.2&#10;&#9;&#9;c0.1-1.5-2.5-0.3-3.5-0.7c-0.8-1.6-3.4-1.2-4.2-2.8c0.9-0.3,1.4-0.9,1.4-2.1c-2.2,1.8-5,6.6-9.1,4.2c0.7-2.6,3.1-3.5,4.2-5.6&#10;&#9;&#9;c-1.9,0.5,0.5-3.3-1.4-2.8c0.3,2.7-0.3,4.4-2.1,4.9c0.1,0.8-1,0.4,0,0v-2.1c-0.6,0.1-0.7,0.7-1.4,0.7v4.9c-3.1,1.6-5,4.3-9.8,4.2&#10;&#9;&#9;v-2.8c-1.8-1.4,0.8-4.2,0.7-6.3c-3,1.2-0.7,7.7-4.2,8.4c-6.9-0.8-12.4-1.8-16.7-0.7c0.3-0.1,0.6-1.1,0.7-1.4&#10;&#9;&#9;c-2.5-1.1-0.4,2.4-2.1,2.1c-5.7,1-0.3-9-4.9-9.1c1.2,2.5,1.7,5.7,1.4,9.8c-6,1.2-8,6.4-13.2,8.4c-3.5-5.8-6.4-12.3-3.5-20.9&#10;&#9;&#9;c4-1.3,7.5,0.6,9.8,0c-1.9-2.1-7.5-0.7-9.1-1.4c0.1-2.9,5.4-0.7,7.7-1.4c0.7-3.3-5.2,0.1-5.6-2.1c4.1-1.8,6.9-6.8,13.2-4.2&#10;&#9;&#9;c-0.1-1.1-1.8-0.5-1.4-2.1c3.5-2.1,8.5-2.6,11.2-5.6c-2.2-0.1-3.9,0.3-4.9,1.4c0.5,0.2,1.4,0,1.4,0.7c-0.5-0.2-1.4,0-1.4-0.7&#10;&#9;&#9;c-2.8-2.1,1.8-2.8,1.4-4.9c-0.7,0-0.8,0.6-1.4,0.7c0.1,0.8-1,0.4,0,0c0.1-0.9,0.2-1.7,1.4-1.4v-0.7c-4.1-0.2,1.8-4.2-0.7-4.9&#10;&#9;&#9;c-1.7,3.4-1.8,8.5-5.6,9.8c-2.4-3.4,1.3-9.7,0-11.9c-1,0.9-0.3,3.9-2.1,2.1c0,1.6,1.2,2.1,0.7,4.2c-0.6-0.4-1.1-0.7-2.1-0.7&#10;&#9;&#9;c1.7,1.5,1.8,4.8,2.8,7c-4.5,3.2-7.8,7.5-13.2,9.8c0.1-3.5-1.6-6.2,0-9.1c-2.8,1.2-0.8,7.1-1.4,10.5c-3.2,0.3-5.1,1.8-7.7,2.8&#10;&#9;&#9;c-0.7-3.2,0.9-4.2,1.4-6.3c-4.2,0.2-1.8-9.6-2.1-15.3c-2.1,0,1,5.2-2.1,4.2c1-5.3,0.1-7.7-2.1-11.2c0.2,3.1,1.1,5.4,0.7,9.1&#10;&#9;&#9;c-1.8-0.7-2.3-2.8-4.2-3.5c5.4,4.5,6.8,12.8,7.7,23.7c-5.2,2.5-7.5,7.8-14.6,8.4c-2.9-4.2,0.9-5,2.1-8.4c-1.9,3.4-7.5,4-4.2-0.7&#10;&#9;&#9;c-3.9,2.3-1.8-6.5,0-7c-0.1,3.1,2.3,3.6,0.7,6.3c1-0.6,2.2-1,2.1-2.8c-2.2-1.3-2.3-4.7-4.2-6.3c-0.8,4.6-1.6,9.5-2.1,12.6&#10;&#9;&#9;c2.7,0.6,4,2.5,4.2,5.6c-1.2,1.5-2.6,3.9-3.5,3.5c-1-0.5,1.6-4.6-0.7-2.1c-1.2,1.2,1.2,3.3-2.1,4.2c-0.5-1.6-2.3-1.9-2.8-3.5&#10;&#9;&#9;c-5.2-1.7-3-8-4.2-12.6c-0.1,1.1,0.3,2.7-0.7,2.8c-1.3,8.5,3.9,10.5,7,14.6c-2.9,1.7-7.7,1.6-11.9,2.1c0.9-2.4,3.9-2.6,4.2-5.6&#10;&#9;&#9;c-3.3,3.3-1.5-2.2-1.4-4.9c-3,7.5-4.9,16-11.2,20.2c-0.2-2,1.6-2.1,1.4-4.2c-2.6,4.1-4.8,8.7-9.1,11.2v-5.6&#10;&#9;&#9;c2.6-0.3,6.3-2.9,4.2-5.6c0.2,3.2-2.3,3.8-4.2,4.9c0.5-3.8,0.5-9.9-0.7-15.3c6.5-2.4,13.4-4.3,18.8-7.7c-7.1,1.9-13.4,4.7-20.2,7&#10;&#9;&#9;c3.1-3.9,6.6-9.5,11.2-13.3c1.4-1.2,7.1-3.6,4.2-4.2c0.1,0.8-1,0.4,0,0c0.2-1.6,2.4-1.3,2.1-3.5c-6.3,4.8-10.7,11.6-16.7,16.7&#10;&#9;&#9;c-0.1-1.7-0.1-3.4,0.7-4.2h-1.4c-0.1,0.8-0.8,1.1-1.4,1.4c0-3-1.9-4.7-0.7-7c6.9-1,11.7-4.1,16-7.7c-1.3-0.2-1.5,0.8-2.8,0.7&#10;&#9;&#9;c0.4-1.5,1.7-2,1.4-4.2c-1.8,5.2-7.9,9.7-13.2,9.1c0.4-0.6,0.7-1.1,0.7-2.1c-2.7-1.3,0-3.9,0-7.7c-2.6,1.8-2.9,5.9-4.9,8.4&#10;&#9;&#9;c-0.4-1.7,0-4.2-2.1-4.2c-2,0.5,0.6,5.7-1.4,6.3c0-2.8-0.7-4.9-2.1-6.3c-0.6,2.5,2.7,4.7,0.7,6.3c1,0.8,1.1,2.6,2.1,3.5&#10;&#9;&#9;c0.7-2.7,0.2-6.8,1.4-9.1c0.3,3.9,4.5,8.8-0.7,10.5c-0.2-0.5,0-1.4-0.7-1.4c0.6,3.2-0.8,4.3-2.8,4.9V136c-1-0.2-1.2-1.1-2.1-1.4&#10;&#9;&#9;c-0.3,2.2,2.1,1.6,1.4,4.2c-3.2,2.8-2.2-0.3-2.1-4.2c-1,1.4-2.1,4.7-0.7,6.3c-2,0.1-2.9,1.3-4.9,1.4c0.1,0.8-1,0.4,0,0&#10;&#9;&#9;c0-0.7,0.6-0.8,0.7-1.4c-4.3-1.3,2.3-7.9-1.4-7c0.3-2.8,2.3-3.8,3.5-5.6c0.3,1.3,1.5,1.8,1.4,3.5c0.8-0.1,0.4,1,0,0&#10;&#9;&#9;c-0.5,0.2-1.4,0-1.4,0.7c0.9,0.7,2.6,0.7,2.8,2.1h0.7c0.3-3.4-4.9-6.9-1.4-9.1c1-0.8,1.7-2,3.5-2.1c5.5-3.1,8.7-8.5,14.6-11.2&#10;&#9;&#9;c0-0.4,0.6-0.8,0.7,0c1.2-1.1,3.1-1.5,4.2-2.8c-2.9,0.1,0-1.1,0-2.1c-3.2,0.6-3.2,4.2-7,4.2c0.1,0.8-1,0.4,0,0&#10;&#9;&#9;c0.2-1.6,2.4-1.3,2.1-3.5c-1.9,0.9-2.8,2.8-4.2,4.2v-2.1c-1.9-0.5,0.5,3.3-1.4,2.8c0.1-1.7-0.4-2.9-1.4-3.5&#10;&#9;&#9;c2.6,6.9-3.7,9.4-7.7,11.9c0.2-1.6,1.5-3.5-0.7-2.1c-0.2,0.5,0,1.4-0.7,1.4c0.1,0.8-1,0.4,0,0c0.2-0.5,0-1.4,0.7-1.4&#10;&#9;&#9;c5-8.2,5.9-20.6,20.9-18.8c1.5-1.3,3.3-2.2,5.6-2.8c-0.2-1.6,2-0.8,2.1-2.1c-2.2,0.6-2.2-1.1-2.8-2.1c0.5-1.6,2.3-1.9,2.8-3.5&#10;&#9;&#9;c-2-0.8-2.6,3.3-3.5,1.4c-0.7-1.3,2.1-2.3,0-2.8c-1.9,2.4,0.1,5.5,0.7,7.7c-1.6,1-6.8,4.9-8.4,1.4c-2.4-0.3-1.1,3.1-4.2,2.1&#10;&#9;&#9;c0.7-1.8,2.8-2.3,3.5-4.2c-3.8,1.1-4.6,5.2-9.1,5.6c0.4-1.2,3.4-3.5,1.4-4.9c-0.4,2.7-3.7,6-4.9,5.6c2.7-11,14.7-12.7,25.1-16&#10;&#9;&#9;c1.8-2.8,6.3-3,9.8-4.2c-3.6-0.6,2.4-1.7,2.1-3.5c-2.6-0.5-1.8-1.7-0.7-3.5c-1.5-0.4-1,1.3-2.1,1.4c0,2.3,0,4.6-2.8,4.2&#10;&#9;&#9;c0-0.7,0.6-0.8,0.7-1.4c-0.8,0.1-0.4-1,0,0c1.5-0.4,1.5-1.1,0.7-2.1c-1.2,1-1.6,0.6-1.4-1.4c-1.5,2-0.5,3.6-2.1,0.7&#10;&#9;&#9;c0.3,3.5,0,6.5-2.8,7c0.1,0.8-1,0.4,0,0c-0.4-1,0.8-3.6-0.7-3.5c0.1,7.1-10.1,7.6-13.9,8.4c3.1-3.9,4.5-9.5,9.8-11.2&#10;&#9;&#9;c-0.5-0.2-0.8-0.6-0.7-1.4c-0.9,0.2-1.1,1.2-2.1,1.4v-2.8c-0.6-0.1-0.7-0.7-1.4-0.7v3.5c-4.9,4.3-7.3,14.5-13.9,14.6&#10;&#9;&#9;c1.1-3.1,3.4-5,4.2-8.4c-2.1,1.1-2.4,4.1-4.2,5.6c-0.1-4,0.5-7.4,2.8-9.1c-2.6-0.9,1.7-4.2-0.7-4.9c-1.9,0.9-0.2,5.4-2.8,5.6&#10;&#9;&#9;c0.5-2.5,1-5.1,0.7-8.4c-0.8,2-5.4,3.2-7,3.5c3.2-6.6,9.2-10.4,16.7-12.6c-0.1-1.3,0.9-1.5,0.7-2.8c-1.8,0.1-1,2.7-2.8,2.8v-2.1&#10;&#9;&#9;c-0.8,0.2-0.5,1.4-1.4,1.4c-0.2,0.5,0,1.4-0.7,1.4c0.2-0.5,0-1.4,0.7-1.4c-0.4-2.1,0.9-6-0.7-7v6.3c-1.4,0.2-0.7,2.6-2.1,2.8&#10;&#9;&#9;c-1.6,1.4-0.8-0.2-2.1-0.7c-0.1,2.9-4.2,4.9-4.9,1.4c-0.4,1.2,0.8,4.1-0.7,4.2c-0.7-0.9-0.7-2.6-2.1-2.8c-0.2,2,1.6,2.1,1.4,4.2&#10;&#9;&#9;c-1.6,1.4-1.9,1.4-3.5,0c1.9,3.1-0.5,9.5-4.2,11.2c0,3.1-1.7,4.4-3.5,5.6c-0.2,0.5,0,1.4-0.7,1.4c-0.2,0.5,0,1.4-0.7,1.4&#10;&#9;&#9;c0.2-0.5,0-1.4,0.7-1.4c0.2-0.5,0-1.4,0.7-1.4c1.2-2.8-2.2-6.9,0.7-7c-2.3-3.1,3-3.7,4.9-4.9c-2.2,0.6-2.6-0.6-3.5-1.4&#10;&#9;&#9;c-0.2,4.8-2.6,0.2-3.5,2.8c0.3-2.2-2.1-1.6-1.4-4.2c-0.4-2.7,0-10.8-4.2-9.1c1.2,0.9,2.7,1.4,2.8,3.5c-1-0.1-2-0.1-2.1,0.7&#10;&#9;&#9;c4.1,0.3,1.9,7.7-0.7,7.7c-3.5,4.9-6.8,9.9-8.4,16.7c-0.6-0.6-0.4-1.9-1.4-2.1c-0.7,2.6,1.7,2,1.4,4.2c-4.6-2.4-5.1-8.9-5.6-15.3&#10;&#9;&#9;c-2.6-1.6-1.2-6.6,0.7-7.7c-1.9-0.1-1.4,1.2-2.8,0v4.2c-1.3,0-2.4-3.6-3.5-1.4c4.5,1.3,5.1,10.2,4.2,14.6c-2.4-2.9-3.9-6.8-6.3-9.8&#10;&#9;&#9;c-0.6,1.6,2.4,3,0.7,3.5c-1.9-1-4.8-4-2.1-5.6c0,1.2,0.5,1.8,1.4,2.1c0.2-2-1.6-2.1-1.4-4.2c2.5-0.8,4.1-2.4,4.9-4.9&#10;&#9;&#9;c-1.9,0.4-3.5,4.8-4.9,3.5c-1.3-4.2,0.5-8.7-0.7-11.9c-0.3,3.2-1.1,5.9-0.7,9.8c0.7,0,0.9,1.2,0,1.4v-1.4c-0.7,0.1-1.4-3-2.1-0.7&#10;&#9;&#9;c2,2.3,3.7,5.5,0.7,7.7c-3.4-2.1-3-6.6-1.4-10.5c-1.6-0.2-0.8,2-2.1,2.1c-0.4,1.2-0.4,2.9-1.4,3.5c-1-1.6-1.8-3.4-1.4-6.3&#10;&#9;&#9;c-1,0.2-0.2,2.1-1.4,2.1c-1-0.9-0.3-3.4-2.1-3.5c0.8,2.9,0.8,6.6,0.7,10.5c-1.4-0.2-1.4-1.9-2.8-2.1c0.3,2,1.5,3.2,3.5,3.5&#10;&#9;&#9;c0.4-2.3-0.9-6.5,0.7-7.7c1.9,1.8-0.4,6.7,0.7,7.7h0.7c0.4-1.2-0.8-4.1,0.7-4.2c-0.7,3.3,9.1,8,4.2,7.7c-0.1,2,4.3-0.6,4.2,1.4&#10;&#9;&#9;c2,1.3,4.7,3.3,2.1,5.6c-0.4-2.2-2.1-3.1-2.1-5.6c-2.1,0.9,0.8,2.4,0,4.2c0.4,0,0.8,0.1,0.7,0.7c0.8-0.1,0.4,1,0,0&#10;&#9;&#9;c-0.4,0-0.8-0.1-0.7-0.7c-0.7,0-0.8-0.6-1.4-0.7c-0.1,3.1,3.8,2.2,3.5,5.6c-2-1-5.1-0.9-6.3-2.8c-0.9-0.8-0.3-6.6-1.4-4.9&#10;&#9;&#9;c-0.4,3.9,0.4,6.6,1.4,9.1c0.8-0.1,0.4,1,0,0c-1.6-0.1-2.7-4.2-4.2-2.1c1.4,1.9,3.3,3.2,4.2,5.6c0.8-0.1,0.4,1,0,0&#10;&#9;&#9;c-3.7-1.7-6-4.7-9.1-7c-6.4-2.3-1.9-12.4-6.3-17.4c1,2.5,0.8,4.3-1.4,2.1c1.1,2.9,3.8,6.2,2.1,9.8c0.7,0,0.9,1.2,0,1.4v-1.4&#10;&#9;&#9;c-1.4-1.8-0.7-5.8-2.8-7c-0.1,2.9,2.9,6.3,0.7,9.1c0.1,2.3,7.5,3.7,4.2,4.9c1,1.1,5.9,2,4.2,3.5c-3,0.4-5.4-3.4-7.7-1.4&#10;&#9;&#9;c3.7,0.5,6.8,3.7,10.5,2.1c9.3,10.3,26.7,16,26.5,33.5c-1.6-2.1-0.9-6.5-2.8-8.4c-0.4,1,0.8,3.6-0.7,3.5c1.1,2.2,4.4,5.8,2.8,8.4&#10;&#9;&#9;c-1-1.1-4-0.2-3.5-2.8h-2.1c3.4,4.3-7.7,0.9-8.4-1.4h5.6v-0.7c-3.4-0.6-4.5-7.1-7.7-5.6c1.2,1,4.6,3.2,3.5,4.2&#10;&#9;&#9;c-0.7-0.4-2.6-1.6-2.1,0.7c1,0.1,2.6-0.2,2.8,0.7h-2.8c0.1,0.8-1,0.4,0,0v-0.7c-3.6,0.6-7.7-3.1-10.5-5.6&#10;&#9;&#9;c-7.4-1.2-15.5-7.7-20.2-13.9c-0.3-5.8-0.4,2.4-3.5,0.7c2.3,1.2,7,3.7,6.3,5.6c-6.4-0.6-7.9-6-13.2-7.7c1,6.6,10.9,7.2,18.1,10.5&#10;&#9;&#9;c0,0,1.2,0.6,1.4,0.7c7,5.2,14.8,9.6,21.6,13.3c0.4,0,0.8,0.1,0.7,0.7c1.8,0.3,3.2,1,4.2,2.1c-0.4,1,0.8,3.6-0.7,3.5&#10;&#9;&#9;c-0.3-2.5-1.8-3.8-3.5-4.9c2.1,4.1-2.5-0.1-2.1,2.8c2.8-0.3,4.9,0.3,4.9,2.8c-1.4,2.1-1.4,8.5-4.2,7c-0.1,0.8,0.1,2-0.7,2.1&#10;&#9;&#9;c0.3-1.7-1.3-1.5-0.7-3.5c-0.5-0.2-0.8-0.6-0.7-1.4c-0.5-0.2-0.8-0.6-0.7-1.4c-0.4,0-0.8-0.1-0.7-0.7c-0.6-0.1-0.7-0.7-1.4-0.7&#10;&#9;&#9;c-0.2,2,1.6,2.1,1.4,4.2c0.8-0.1,0.4,1,0,0c-2.1-0.4-3.5-5.3-5.6-3.5c1.5,1.4,1.6,2.7,2.8,5.6c0.4,0,0.8,0.6,0,0.7v-0.7&#10;&#9;&#9;c-10.4-7.3-25.5-9.8-31.4-21.6c0.3-1.3,1.5-1.8,1.4-3.5c-4.8,5.6-3-0.4-4.9-9.8c-0.7-3.4-3.2-7.1-2.8-9.8c0.7-4.4,5.1-5.2,4.9-7&#10;&#9;&#9;c-3.1,0.2-3.1,3.4-4.9,4.9c-1-0.9-0.7-3-0.7-4.9c-1.9-0.1,0.3-2.4,0.1-0.5c0.6-1.2,5.2-0.6,3.4-1.6c-4.6,1.2-2-2.1-4.2-2.1&#10;&#9;&#9;c0.2,2-0.2,2.4-1.4,1.4c0.1,1,0.1,2-0.7,2.1c0.9,1.7,2.5,2.6,2.1,5.6c-0.9-0.2-1.1-1.2-2.1-1.4c-0.1,1.7,1.1,2.2,2.1,2.8&#10;&#9;&#9;c-0.1-0.8,1-0.4,0,0c0,1.6,1.2,2.1,0.7,4.2c0.7,0,0.9,1.2,0,1.4c1.3,1.3,3.4,5.4,1.4,7.7c0.4,1.7,2.5,5.3,0.7,7&#10;&#9;&#9;c-4.3-2-6-6.6-9.1-9.8c4.4,10.4,14.9,14.9,20.9,23.7c-6.5-3.6-29.3-2.9-25.1-13.3c-2.2,3.5-2.4,0-5.6-0.7c1.1,2.6,4.3,3.1,4.9,6.3&#10;&#9;&#9;c-5.4-1.8-9.4-5-10.5-11.2c0,0.7-0.6,0.8-0.7,1.4c0.8-0.1,0.4,1,0,0c-1.8-0.7-2.3-2.8-4.2-3.5c1.3,4.1,5.8,4.9,6.3,9.8&#10;&#9;&#9;c-7.9,1.4-10.5-2.5-13.9-5.6c-0.2,2.8,4.9,3.9,3.5,5.6c-2.3,0-3.7-1-4.9-2.1c-0.1-1.7,0.4-2.9,1.4-3.5c-0.4-1.2-0.4-2.9-1.4-3.5&#10;&#9;&#9;c1.3,3.3-1.9,2.2-2.8,3.5h2.1v3.5c-2,0.6-1.8-1-3.5-0.7c2.8,1.9,5.7,3.6,10.5,3.5c-0.1-0.8,1-0.4,0,0c0.3,0.9,0.9,1.4,2.1,1.4&#10;&#9;&#9;c0.1-1,1.7-0.6,2.8-0.7c0.8-1.2,6.4-1.3,6.3,0.7c-2.8,0.5-4-0.7-6.3-0.7c0.7,2.3,5.5,0.6,7,2.1c0-0.7,1.2-0.9,1.4,0&#10;&#9;&#9;c1.2,0,1.8,0.5,2.1,1.4c0.5,0.2,1.4,0,1.4,0.7c0.5,0.2,1.4,0,1.4,0.7c2.3,0,4.9-0.3,4.9,2.1c-0.8-0.6-1.9-0.9-3.5-0.7v1.4&#10;&#9;&#9;c0.4,0,0.8,0.6,0,0.7v-0.7c-1.2,0-1.8-0.5-2.1-1.4c-0.5-0.2-1.4,0-1.4-0.7h-1.4c5.2,3.6-3.1,3-4.9,0.7c0.9-1,3-0.7,4.9-0.7v-0.7&#10;&#9;&#9;c-4.9,0.7-7.5-0.9-10.5-2.1c-0.3,1.5,4.2,1.7,2.1,2.8c-3.1,0.8-3.5-1.2-5.6-1.4c0.4,1.4,2.1,1.4,0.7,2.8c1.6-0.2,2.6-1.1,4.9-0.7&#10;&#9;&#9;c-0.1,0.6-0.7,0.7-0.7,1.4c2.3-0.7,3-2.1,4.2,0.7c-1.2,0-4.1,1.9-4.9,0c-1.3,1.3-1.3-0.4-3.5,0c5,4.1,15.8-1.8,21.6,3.5&#10;&#9;&#9;c-0.6,1.5-4.4-0.3-4.9,1.4c0.9,0,1,0.9,2.1,0.7c-0.1-0.8,1-0.4,0,0v0.7c4.2-3.7,10.9-0.6,16.7-2.1c2.7-3.6,7.7,0.7,10.5,1.4&#10;&#9;&#9;c0.8-0.1,0.4,1,0,0c-1.4,0.7-2,2.1-5.6,2.1c-2.1-0.7-2.2-3.4-4.9-3.5c0.2,2.6,3.7,1.9,3.5,4.9c-3.2,1.8-7.2-1-9.8,0.7&#10;&#9;&#9;c2.2-0.1,3.9,0.3,4.9,1.4c-2.7,1.7-5.9,3-7.7,5.6c5.4-1.8,8.2-6.2,14.6-7c1.9,1.3,3.5,3,4.9,4.9c-1.3,0.1-2.3,0.5-2.8,1.4&#10;&#9;&#9;c2.1,0.5,2.1-1.2,4.2-0.7c0.8,0.9,0.3,1.1,0,2.1c2.2,0.1,5.3-0.7,4.9,2.1c1.1,0.1,2.7-0.3,2.8,0.7c5.9,1.6,11.9,3,13.9,8.4&#10;&#9;&#9;c0.4,0,0.8,0.6,0,0.7c0.1,2,3.3,0.9,2.8,3.5c2.2,1.6,4,3.4,5.6,5.6c0.8-0.1,0.4,1,0,0c-4.4-2.5-7-4-13.9-2.8&#10;&#9;&#9;c-1.7-2-2.3-5.2-4.9-6.3c-0.3,2.2,3.8,3.5,2.1,4.9c-1.2-1.2-4.1-0.6-6.3-0.7c-0.1-1.8-1.3-2.4-2.1-3.5c-0.7,2.6,1.7,2,1.4,4.2&#10;&#9;&#9;c-1.7,0.1-3.4,0.1-4.2-0.7c0.1,1.5-2.5,0.3-3.5,0.7c0.8,0.8,2,1.3,1.4,3.5c-1.3,0.1-6.9-0.5-4.9,0.7c1.1,0.1,2.7-0.3,2.8,0.7&#10;&#9;&#9;c-0.9,0.6-2,1.1-3.1,1.4L1117.6,172.3z M1269.6,123.5c1.8-2.1,3.1-4.8,7-4.9C1275.5,121.5,1273.3,123.1,1269.6,123.5&#10;&#9;&#9;C1269.7,124.3,1268.6,123.9,1269.6,123.5z M1222.2,80.9c-0.1,0.8-1.3,0.6-2.1,0.7C1220.2,80.8,1221.4,81,1222.2,80.9z M1159.4,95.6&#10;&#9;&#9;C1160.3,95.5,1159.9,96.6,1159.4,95.6C1158.6,95.6,1159,94.5,1159.4,95.6z M1157.4,93.5C1157.1,93.2,1157.8,93.9,1157.4,93.5&#10;&#9;&#9;L1157.4,93.5z M1151.1,87.2c2.8,1.7,4.3,4.5,5.6,7.7c-2.2-0.8-3.9-2.2-5.6-3.5V87.2z M1160.1,109.5c-2.3-5-9.4-5-9.1-12.6&#10;&#9;&#9;c3,2.3,5.4,5.3,9.1,7V109.5z M1151.1,94.2c-1.8,0.8-1.4,3.7-1.4,6.3c-2.8-2.1-4.1-5.7-5.6-9.1c-0.8,0.1-0.4-1,0,0&#10;&#9;&#9;c4.2,0.2,6.1,1.4,8.4,2.8c3.3,2,7.8,3.5,7.7,7.7C1156.8,99.6,1153.3,97.5,1151.1,94.2z M1093.9,131.8&#10;&#9;&#9;C1094.7,129.1,1094.7,134.6,1093.9,131.8L1093.9,131.8z M1095.3,131.1c2.9-1.7,3.9,0.7,7,0.7&#10;&#9;&#9;C1101.5,132.7,1094.9,133.6,1095.3,131.1z M1256.4,133.2C1256.3,132.4,1257.4,132.8,1256.4,133.2c0.7,2.1-1.6,1.2-2.8,1.4&#10;&#9;&#9;C1254.1,133.7,1255.1,133.3,1256.4,133.2z M1234.8,145.8c6.8-0.6,9.4-5.4,14.6-7.7c0-0.4,0.1-0.8,0.7-0.7c-0.1-0.8,1-0.4,0,0&#10;&#9;&#9;c0,0.4-0.1,0.8-0.7,0.7c-1,5.8-6.5,7.6-9.8,11.2c-1.5,1.6-1.5,4.5-4.2,4.9C1234.5,152,1234.8,148.8,1234.8,145.8z M1233.4,146.5&#10;&#9;&#9;c2,0.8-0.6,6.2,1.4,7C1231.2,155.3,1230.6,148.5,1233.4,146.5z M1229.9,150C1230.7,147.2,1230.7,152.7,1229.9,150L1229.9,150z&#10;&#9;&#9; M1227.1,151.4C1227.2,149.3,1230,152,1227.1,151.4c-0.5,1.9,3.3-0.5,2.8,1.4c0.1,2.9-4.9,0.7-7,1.4&#10;&#9;&#9;C1223.8,152.7,1225.2,151.8,1227.1,151.4z M1213.8,151.4c3.6,0.5,5.1-1,8.4-0.7c-3.6,2.5-6.7,5.4-11.2,7&#10;&#9;&#9;C1211.9,155.4,1213.4,153.9,1213.8,151.4z M1206.9,184.8c1.2-1.1,2.5-2.1,4.9-2.1c0.2,3-3.9,1.7-3.5,4.9&#10;&#9;&#9;C1206.4,188.1,1208.8,184.3,1206.9,184.8z M1208.3,176.5C1208.7,176.9,1208,176.2,1208.3,176.5L1208.3,176.5z M1213.8,184.1&#10;&#9;&#9;c0.2,2.8-1.3,3.8-4.2,3.5C1211.3,186.7,1211.3,184.1,1213.8,184.1z M1210.6,180.3c1.7-1.6,6.3-4.5,7.5-6.6c0.6,1.3,2.9,4.6,3.2,6.2&#10;&#9;&#9;C1218.7,180.2,1213.8,180.7,1210.6,180.3z M1218.7,181.3c-0.4,0.6-0.7,1.1-0.7,2.1c-1.5,0.1-2.2-0.6-2.1-2.1H1218.7z M1218,185.5&#10;&#9;&#9;c0-0.4,0.1-0.8,0.7-0.7c0-0.4,0.1-0.8,0.7-0.7c-0.2-1.3,0.8-1.5,0.7-2.8c1.2-0.2,1.2,3.9-0.7,2.8c0,0.4-0.1,0.8-0.7,0.7&#10;&#9;&#9;C1218.7,185.3,1218.6,185.7,1218,185.5C1218.1,186.4,1217,186,1218,185.5z M1203.4,188.3c-0.1,0.8-0.2,1.6-1.4,1.4v-1.4H1203.4&#10;&#9;&#9;C1202.7,185.4,1205.5,188.2,1203.4,188.3z M1198.5,184.1c-5.5,2.4-3.4-4.8-4.3-8c1.2-1.2,5.8-3.4,8.5-1.8&#10;&#9;&#9;C1204.8,178.4,1201.3,182.7,1198.5,184.1z M1193.6,124.8C1194.4,122.1,1194.4,127.6,1193.6,124.8L1193.6,124.8z M1193.6,126.9&#10;&#9;&#9;C1194.4,124.2,1194.4,129.7,1193.6,126.9L1193.6,126.9z M1192.9,133.9c1,1.3,1.3,3.3,1.4,5.6c3.5,3.5-0.7,8.9-4.2,9.8&#10;&#9;&#9;c-0.2-3.9,1-6.5,2.8-8.4C1190.9,139.3,1193.9,136.8,1192.9,133.9z M1190.8,135.3c1.9,0.6-1,2.2,0,4.2&#10;&#9;&#9;C1189.3,139.2,1190.3,135.8,1190.8,135.3z M1188,138.1c2.5-0.7,1,2.7,1.4,4.2C1188.5,141.2,1186.5,139.7,1188,138.1z M1178.3,108.1&#10;&#9;&#9;c-0.6-2.2,1.8-1.4,2.1-2.8c2,1-1.2,2.4-0.7,4.2C1178.8,109.5,1179,108.3,1178.3,108.1c1.7,10.7-4.2,19.3-4.9,30&#10;&#9;&#9;c-1.7-8.2-3.6-17.1-2.1-26.5C1173.8,110.8,1176.2,107.1,1178.3,108.1z M1173.4,106.7c0.2-1,1.1-1.2,1.4-2.1&#10;&#9;&#9;C1176.5,104.9,1174.8,107.3,1173.4,106.7C1173.5,107.6,1172.4,107.1,1173.4,106.7z M1177.6,124.2&#10;&#9;&#9;C1178.2,127,1175.5,124.3,1177.6,124.2c2.4-6,0.6-16.1,5.6-19.5h4.2C1184,111,1181.6,118.4,1177.6,124.2z M1191.5,103.9&#10;&#9;&#9;C1191.5,103.1,1192.5,103.5,1191.5,103.9c-2.2,4-3.8,8.8-7,11.9c-0.2,0.5,0,1.4-0.7,1.4c0.1,0.8-1,0.4,0,0c0.2-0.5,0-1.4,0.7-1.4&#10;&#9;&#9;C1187.1,112,1186.4,105.1,1191.5,103.9z M1189.4,95.6c-0.3,2.9-1.3,5.2-2.1,7.7h-4.9C1183.7,99.5,1187.2,98.2,1189.4,95.6&#10;&#9;&#9;C1189.4,94.7,1190.5,95.1,1189.4,95.6z M1182.5,83.7h1.4c-1.1-4.2,3.5-8.5,8.4-9.1c-0.4,6.1-0.9,8.7-1.4,15.3&#10;&#9;&#9;c-1.5-0.6-0.6-3.6-2.1-4.2c-0.3,3.5-1.5-1.5-3.5-0.7c7.5,4.3,2.2,12.1-3.5,14.6c-0.7,2.1-1.9-0.8-2.8-0.7c0.3,2.2-1.9,1.8-2.1,3.5&#10;&#9;&#9;c2.1,0.5,1.3-1.9,3.5-1.4c-0.1,2.4-2.8,2.3-3.5,4.2c-1.7-0.1-0.2-2.4,0-2.8h-1.4c0.1,0.8-1,0.4,0,0c-0.1-2.2,1.9-2.3,1.4-4.9&#10;&#9;&#9;c1,0.2,1.2,1.1,2.1,1.4c-1.7-2.6-1-3.9,0-7c3.1,0.4,1.2,5.8,2.8,7.7c0.5-4-0.7-6.2-0.7-9.8c-1.3,0.5-0.5,2.1-2.1,0.7&#10;&#9;&#9;c-1.9,3.2-2.8,7.4-4.2,11.2c-1-0.2-1.2-1.1-2.1-1.4c-0.3,2.2,2.4,1.8,0.7,3.5c-2.4,0.1-2.1-2.6-2.1-4.9c-2.3,3.6,3.2,8.7-1.4,11.2&#10;&#9;&#9;c-6.3-7.9,2.5-13.3,5.6-16.7C1178.7,89.9,1179.4,85.2,1182.5,83.7z M1168.5,117.2c-0.1-1.7-0.1-3.4,0.7-4.2&#10;&#9;&#9;C1170.3,113,1170.7,118.2,1168.5,117.2z M1172.7,78.8c-0.3-1.6-4.4,0.1-2.1-2.1c0.7,0,0.8-0.6,1.4-0.7c0-1,0.3-1.5,0.7-2.1&#10;&#9;&#9;c0.8,0.2,2.7,3.3,0,2.8c0.2,1.4,1.9,1.4,2.8,2.1c2.5,9.8-3.1,15.5-8.4,19.5v3.5c-1-0.2-0.9-7.4-3.5-8.4&#10;&#9;&#9;C1165.8,87.8,1164.9,79,1172.7,78.8z M1165.7,108.8C1166.1,106,1165.1,112.9,1165.7,108.8L1165.7,108.8z M1164.3,131.8&#10;&#9;&#9;C1165.1,129.1,1165.1,134.6,1164.3,131.8L1164.3,131.8z M1163.6,104.6c-0.9-0.3-1.4-0.9-1.4-2.1&#10;&#9;&#9;C1163.1,102.8,1163.7,103.4,1163.6,104.6z M1162.2,106.7c1.4,0.7,1.5,2.7,1.4,4.9C1161,112.2,1162.7,108.3,1162.2,106.7z&#10;&#9;&#9; M1165.7,138.8c-2.3-1.7-4.2-3.7-7-4.9C1161.2,132.6,1165.8,135.2,1165.7,138.8z M1154.6,133.2c4.7,1.3,7.8,4.3,10.5,7.7&#10;&#9;&#9;c1.9,0.9,1.8,3.8,2.1,6.3c-1.2-1.6-1.8-3.8-2.1-6.3c-0.5,0.2-0.8,0.6-0.7,1.4c-0.9,0-1-0.9-2.1-0.7c0.1,2,3,1.2,2.8,3.5&#10;&#9;&#9;c-1.8-0.3-3.2-1-4.2-2.1c-0.5,0.2-0.8,0.6-0.7,1.4c3.4,0.3,4.8,2.6,5.6,5.6h0.7c-0.1-0.8,1-0.4,0,0v0.7c0.4,0,0.8,0.1,0.7,0.7&#10;&#9;&#9;c0.4,0,0.8,0.6,0,0.7c0,0.7,0.6,0.8,0.7,1.4c1.4-0.2,1.4,0.9,2.1,1.4v1.4c1,0.6,1.5,1.8,1.4,3.5c0.8-0.1,0.4,1,0,0h-1.4&#10;&#9;&#9;c2.2,1.8,3.4,4.5,4.2,7.7c-2.4,0.5-6.3-2.8-5.6-7.7c-0.8,0.1-0.4-1,0,0h1.4c-1.3-1.3-0.1-1.8,0-3.5c-0.9,0.3-1.4,0.9-1.4,2.1&#10;&#9;&#9;c-1.5-1.6,0.3-2.5-0.7-4.9c-1.8,7.1-0.8-2-4.2-2.8c-1.8,1,2.6,1.6,1.4,4.2c0.8-0.1,0.4,1,0,0h-1.4c0.9,1.2,1.4,2.7,3.5,2.8v3.5&#10;&#9;&#9;c2.1,0.8-0.8,3.7,0,0c-2.3,1.2-6.5-0.6-9.1-1.4c0.4-1-0.8-3.6,0.7-3.5c-1.5-0.8-1.9-3.8-0.7-6.3c-0.7,0-0.8-0.6-1.4-0.7&#10;&#9;&#9;c0,1.8,0.4,4.6-1.4,2.8c0.8,2,2.2,3.4,2.1,6.3c-1.7-1.1-3.1-2.5-4.2-4.2c0.6-2.2,1.7-3.9,3.5-4.9c-0.1-2.4,2.4-2.3,2.8-4.2&#10;&#9;&#9;c-1,0-1.5,0.3-2.1,0.7c0.1,0.8-1,0.4,0,0c0.2-1.6,1.1-2.6,0.7-4.9c-1,1.6-1.4,3.7-2.1,5.6h-0.7c0,0.9,0.9,1,0.7,2.1&#10;&#9;&#9;c-1.9,0.7-2.3,2.8-3.5,4.2c-2.1-2,0.7-4.8,0-7.7c-1,0.1-0.6,1.7-0.7,2.8C1146,144.9,1154.5,138.8,1154.6,133.2z M1165.7,148.6&#10;&#9;&#9;C1165.4,148.3,1166.2,149,1165.7,148.6L1165.7,148.6z M1157.5,182.8v-5.6c9.2,0.5,8.9,7.3,11,11.8c0.4,0,0.8,0.1,0.7,0.7&#10;&#9;&#9;c0.5,0.2,1.4,0,1.4,0.7c0.8-0.1,0.4,1,0,0c-0.5-0.2-1.4,0-1.4-0.7c-0.4,0-0.8-0.1-0.7-0.7C1165.2,187.7,1163.7,184.5,1157.5,182.8z&#10;&#9;&#9; M1162.9,186.9c-0.5-0.2-1.4,0-1.4-0.7c-0.8,0.1-0.4-1,0,0C1162.1,186.4,1162.9,186.2,1162.9,186.9&#10;&#9;&#9;C1163.8,186.8,1163.4,187.9,1162.9,186.9z M1165,173c-3.2,0.4-3.3-2.3-4.9-3.5C1161.4,168.3,1164.9,170.8,1165,173z M1162.2,166.7&#10;&#9;&#9;c1.4-1.4,5.8,0.2,4.9,3.5C1165.8,168.7,1164.2,167.5,1162.2,166.7z M1156.7,180.6c-2.5,0.4-1.7-2.5-4.2-2.1&#10;&#9;&#9;c-0.6-2.4,0.8-2.9,1.4-4.2c0.9-0.1,1.4,3.5,2.1,1.4C1157.5,176.1,1156.2,179.2,1156.7,180.6z M1156,182c-0.9,1.8-4.6,0.4-3.5-2.1&#10;&#9;&#9;C1153.7,180.6,1154.5,181.6,1156,182z M1156,170.2C1158.1,170.3,1155.3,173.1,1156,170.2C1155.1,170.3,1155.5,169.2,1156,170.2z&#10;&#9;&#9; M1151.1,151.4c-1.7-0.9-2.8-2.3-2.8-4.9C1149.8,147.5,1151.6,148.3,1151.1,151.4z M1142.7,143c1.5,1.3,3.7,1.9,3.5,4.9&#10;&#9;&#9;C1144.4,146.8,1143.3,145.2,1142.7,143C1141.9,143.1,1142.3,142,1142.7,143z M1116.9,140.2c8.6-1.5,12.1,6,18.1,9.1&#10;&#9;&#9;C1126.8,151.3,1120.2,145.5,1116.9,140.2z M1136.4,152.7V152c-2.9,0.7-0.1-2.1,0,0c1,0,1.5,0.3,2.1,0.7&#10;&#9;&#9;C1138.3,153.8,1137,153.2,1136.4,152.7z M1149,160.4c-3.2,0.3-5-3.5-7-5.6c-4.8-5-10.9-10.7-16-13.9c-0.5-0.2-1.4,0-1.4-0.7&#10;&#9;&#9;c-0.8,0.1-0.4-1,0,0c0.5,0.2,1.4,0,1.4,0.7c9.4,2,15,7.8,22.3,11.9C1148.9,154.9,1150.9,158,1149,160.4z M1149.7,163.9&#10;&#9;&#9;c0.4-2.4,1.9-3.7,2.1-6.3c2.4,3,3.8,6.9,4.9,11.2C1153.6,167.9,1152.4,165.1,1149.7,163.9z M1135,173.7c0.2,1.9,3.9,0.2,3.5,2.8&#10;&#9;&#9;h-1.4c0,0.7,0.6,0.8,0.7,1.4c0.4,0,0.8,0.6,0,0.7c1.1,2-1.6,2.1-2.1-0.7h0.7c0.1-0.7-3-1.4-0.7-2.1c-1-2.5-13.3,0.9-12.7-5.6&#10;&#9;&#9;c0.1-1.4-0.4-3.5,2.3-3.5c4-0.3,8.2-1.5,11.2,0.7v0.7c1.1,0.1,2.4-0.1,2.1,1.4h-2.1c1.7,1.9,4.2-1.1,6.3,0.7&#10;&#9;&#9;c-0.3-0.9-0.9-1.4-2.1-1.4c1.4-2,4.4,0.2,6.3,0c0.5,1.9-1.4,1.4-1.4,2.8h-0.7C1142.2,174,1139.1,173.4,1135,173.7z M1150.9,187&#10;&#9;&#9;c-1.5,0.3-5.1-3.1-6-3.3c0.1-1.8,4.9-7,6.6-7.1L1150.9,187z M1142.7,180.6c0.3,1,0.8,1.2,0,2.1&#10;&#9;&#9;C1141.8,182.7,1141.8,180.8,1142.7,180.6c-1.2-1.2-0.6-4.1-0.7-6.3c2.8-1.5,5.8-1.9,7,1.4C1147.4,177.9,1146.1,180.3,1142.7,180.6z&#10;&#9;&#9; M1147.6,172.3C1146.8,172.3,1147.2,171.3,1147.6,172.3C1150.7,172.1,1147.8,175,1147.6,172.3z M1148.3,170.2&#10;&#9;&#9;c1.9,0.9,3.4,2.2,5.6,2.8C1152.6,174.2,1148.6,172.3,1148.3,170.2z M1150.4,191.1c-0.2-1.8,2.1-4.2,2.1-4.2&#10;&#9;&#9;c2.1,1.6,2.2,5.2,5.6,5.6C1155.5,195.3,1152,193,1150.4,191.1z M1153.2,185.5C1150.6,183.4,1155.3,183.2,1153.2,185.5&#10;&#9;&#9;c1.4,0.2,1.4-0.9,2.1-1.4c2.9,2,6.3,4.2,9.1,4.2c1.7,1.6,3.9,2.6,4.9,4.9c-2.1,0.4-3.6,1.5-5.6,2.1&#10;&#9;&#9;C1159.4,192.7,1155.5,189.9,1153.2,185.5z M1175.5,198.8c-3.3-3.5-7.8,1.8-10.5-1.4c1.9-2.1,5-2.9,8.4-3.5&#10;&#9;&#9;C1173.6,196,1174.9,197,1175.5,198.8C1176.3,198.7,1175.9,199.8,1175.5,198.8z M1168.9,171.7l5.2,4c3.3,4.4,3.5,11.8,5.6,17.4&#10;&#9;&#9;C1174.8,189.2,1171.6,177.9,1168.9,171.7z M1176.2,153.4C1177,150.7,1177,156.2,1176.2,153.4L1176.2,153.4z M1179,161.1&#10;&#9;&#9;c-1.3-1.3-2.6-2.6-2.1-5.6c2.8-0.5,1.2,3.5,2.8,4.2v-3.5c-0.5-0.2-0.8-0.6-0.7-1.4c-0.5-0.2-0.8-0.6-0.7-1.4&#10;&#9;&#9;c-1.1-2.6-4-4.9-2.1-8.4h0.7c0.9-1.9,4.4-1.2,5.6-2.8c2,0.1-0.6,4.8,1.4,4.9c0-3.3-0.6-7.1,2.8-7c0.7,1.4,2.3,3.3,0.7,4.9h1.4&#10;&#9;&#9;c0.4,3.9-0.3,6.7-2.1,8.4c-1.5-0.4-0.7-4.3,0-4.9c-2.1-0.9,0.5-2.7,0.7-3.5c-2.3,0.7-1.1-2.2-1.4-3.5c-1.7,0.6,0.2,4.9-1.4,5.6&#10;&#9;&#9;c0.8-0.1,0.4,1,0,0h-0.7c0,0.7-0.6,0.8-0.7,1.4c0.9,0.1,1.7,0.2,1.4,1.4h-1.4c0.1,0.8,1.1,0.8,2.1,0.7c-0.4,1.4,1.1,4.8-1.4,4.2&#10;&#9;&#9;c0,1.2-0.5,1.8-1.4,2.1c-0.1,0.8-0.8,1.1-1.4,1.4c-0.1,0.8-0.8,1.1-1.4,1.4C1179.7,160.4,1179.1,160.5,1179,161.1z M1186.6,163.9&#10;&#9;&#9;c-1-1.3-1.6-3-2.1-4.9c-1.1-0.2-0.5-1.5,0-2.1c0.5,0.2,0.8,0.6,0.7,1.4h1.4v-1.4c-2.1-0.1,0.7-2.9,0,0c0.7,0,0.9,1.2,0,1.4&#10;&#9;&#9;C1187.7,160.5,1186.9,161.4,1186.6,163.9z M1185.3,170.2c-2-0.8-2.3-3.3-2.1-6.3c-0.5-0.2-0.8-0.6-0.7-1.4c-0.8,0.1-0.4-1,0,0h0.7&#10;&#9;&#9;v-2.1c-2.1-0.1,0.7-2.9,0,0c1.9,1.6,2.9,4.1,2.8,7.7c-1.2,0-0.4-1.9-1.4-2.1C1184.1,168.1,1185.3,168.5,1185.3,170.2z&#10;&#9;&#9; M1187.3,153.4C1189.9,155.6,1185.2,155.8,1187.3,153.4L1187.3,153.4z M1180.4,163.2c2.3,0.1,1.5,3.2,2.1,4.9&#10;&#9;&#9;C1179.9,168.4,1178.9,164.9,1180.4,163.2z M1181.8,173c-1.2-0.4,0.1-3.3-1.4-3.5c1.5-2.2,2.9,1.7,4.2,2.1&#10;&#9;&#9;C1184.1,172.5,1183.1,172.9,1181.8,173z M1183.2,179.9C1182.3,180,1182.7,178.9,1183.2,179.9C1184,179.9,1183.6,181,1183.2,179.9z&#10;&#9;&#9; M1182.5,175.8h4.2c0.5,1.6,2.1,3.5,0.7,4.9C1184.4,180.3,1183.5,178,1182.5,175.8z M1185.9,187.6c-1.5-0.1-1.1-6-1.5-7.3l5,3.1&#10;&#9;&#9;C1190.7,187.2,1186.6,185.8,1185.9,187.6z M1187.3,196c-1.3-1.8,1.6-4.1,2.1-6.3C1191.1,191.4,1190.1,196.3,1187.3,196z&#10;&#9;&#9; M1191.5,163.2c-1-0.2-1.2-1.1-2.1-1.4c2.4,2.4,3.2,9.6-0.7,11.2c-3-1.6-0.6-9.3,0.7-11.2c-1-1.7,0.3-5.9,0.7-8.4&#10;&#9;&#9;c-2.1-0.1,0.7-2.9,0,0c0.7,0.6,2.3,3.6,0.7,4.2C1191.3,159.3,1191.8,160.8,1191.5,163.2z M1192.9,179.9c-2-1.2-0.7-1.8-0.7-4.2&#10;&#9;&#9;C1194.1,175.8,1193.9,179,1192.9,179.9z M1192.9,168.8c-0.4-5.7-0.7-14.9,2.8-11.2c-0.5-3.5,0.6-5.4,0.7-8.4&#10;&#9;&#9;c-1.4,2.3-3.5,4-3.5,7.7c-1.5-0.1-0.3-3-0.7-4.2c-2.9,0.3-0.8-2.5,0-2.8h0.7c0-0.4,0.1-0.8,0.7-0.7c0-0.4,0.6-0.8,0.7,0&#10;&#9;&#9;c0.8-0.1,1.1-0.8,1.4-1.4c-0.8,0.1-0.4-1,0,0c1.6-1.4,1.6,0.3,0.7,1.4c2.7,2.2,1.5,6.1,1.4,9.8c-1.4,0.2-1.4-0.9-2.1-1.4&#10;&#9;&#9;c-0.8,2.3,1.7,2.5,2.1,4.2c1.1,4.8-2.4,8.9-2.8,13.2C1191.3,175.7,1193.1,171.7,1192.9,168.8z M1198.5,205.7&#10;&#9;&#9;c-0.3,0.9-0.9,1.4-2.1,1.4C1196.3,205.9,1197.1,205.5,1198.5,205.7C1198.4,204.9,1199.5,205.3,1198.5,205.7z M1199.9,194.6&#10;&#9;&#9;c-1,0-1.5-0.3-2.1-0.7c0.9,1.6,1.6,3.6,2.8,4.9c-0.7,2.3-1.9,4.1-4.9,4.2c0.1-3.6-0.7-8.2,2.1-9.1c0-1.2,0.5-1.8,1.4-2.1&#10;&#9;&#9;c0.4-2.4,3.4-1.1,4.9-0.7c-0.1,1.3-2.3,0.5-2.1,2.1c0.8-0.1,0.4,1,0,0c-1.9,0.5-1.4-1.4-2.8-1.4&#10;&#9;&#9;C1199,193.1,1200,193.3,1199.9,194.6z M1201.3,203c0-0.7,0.9-0.5,1.4-0.7C1202.7,202.9,1201.8,202.8,1201.3,203z M1202.7,198.1&#10;&#9;&#9;c-3.3-0.2-0.4-4,0.7-4.2C1205,194.5,1203.3,197.5,1202.7,198.1z M1203.4,193.2c0-0.7,0.9-0.5,1.4-0.7&#10;&#9;&#9;C1204.8,193.2,1203.9,193,1203.4,193.2z M1204.1,171.6v2.1c-1.2-0.3-3.1-3.3-4.2-1.4c-1.7-0.9,0.7-3.4,2.8-2.8&#10;&#9;&#9;C1202.6,170.7,1203.2,171.3,1204.1,171.6v-1.4c-0.8,0.1-0.4-1,0,0c1.3-0.2,1.5,0.8,2.8,0.7c-1-0.5-3.4-5.2-3.5-2.1&#10;&#9;&#9;c-2.4-3.3,4.1-5.1,7-7c3.3-2.2,6.5-6,10.5-5.6c0.1,8.1-3.6,18.7-12.6,14.6h-1.4c0.1,0.8,0.8,1.1,1.4,1.4c-0.6,1.2-2.6,1.2-2.8,2.8&#10;&#9;&#9;C1202.9,174.6,1207.7,171.1,1204.1,171.6z M1205.5,186.2C1206.3,183.5,1206.3,189,1205.5,186.2L1205.5,186.2z M1206.9,193.9&#10;&#9;&#9;c-0.6-2,1-1.8,0.7-3.5c0.7,0,0.8,0.6,1.4,0.7c-0.1-0.8,1-0.4,0,0C1209.1,192.8,1207.9,193.3,1206.9,193.9&#10;&#9;&#9;C1207.5,196.8,1204.8,194,1206.9,193.9z M1208.3,197.4c1.6-2.6,8.1-2.8,10.5-0.7C1216,198.4,1210.9,197.3,1208.3,197.4z&#10;&#9;&#9; M1222.9,191.1c-0.6-0.4-1.1-0.7-2.1-0.7c-0.2,1.6,2,0.8,2.1,2.1c0.1,1.7-1.1,2.2-1.4,3.5c-3-1.4-7.7-3.3-11.9-1.4&#10;&#9;&#9;c3.2-3.3,6.8-6.2,12.6-7C1221.9,189.3,1223.5,189.1,1222.9,191.1z M1222.9,163.2c0,0.4-0.6,0.8-0.7,0c-2,0.5-0.5-6.2,0-7.7&#10;&#9;&#9;c2.3,0.7,7.6-1.5,7.7,1.4c-0.5,0.2-1.4,0-1.4,0.7c3.1-0.9,4.9-2,7.7,0C1232.5,160.2,1226.4,160.4,1222.9,163.2z M1226.4,190.4&#10;&#9;&#9;c0.2,1.8-1.5,1.8-2.8,2.1v-2.8C1224.9,189.6,1225.1,190.6,1226.4,190.4z M1231.3,183.4c-2.8,0-6.6,1.4-9.4,1.4&#10;&#9;&#9;C1221.1,180.8,1233.2,176.2,1231.3,183.4z M1230,175.1c-0.1,2.3-4,1.5-5.7,2.1c-7.2-7.9,7.2-13.1,13.2-14.6&#10;&#9;&#9;C1235,167,1231.6,169.7,1230,175.1z M1238.3,156.2c3.2-0.2,4.7,1.4,7.7,1.4C1244.5,158.8,1238.8,158.2,1238.3,156.2z M1254.3,158.3&#10;&#9;&#9;C1252.8,160.5,1249.8,157.5,1254.3,158.3L1254.3,158.3z M1248,157.6c-1.2-3.2-6.6-2.2-9.8-3.5c4.8-6.3,10.8-11.5,16-17.4&#10;&#9;&#9;c-0.9,0-1,0.9-2.1,0.7c0,0.4-0.1,0.8-0.7,0.7c0.1,0.8-1,0.4,0,0c0-0.4,0.1-0.8,0.7-0.7c-0.7-2.5,2.7-1,4.2-1.4&#10;&#9;&#9;c-4.4,7,0,13.3,1.4,20.2C1253.6,155.8,1250.8,156.7,1248,157.6z M1280.1,163.9c-0.2,1-5.7,1.6-4.9-0.7&#10;&#9;&#9;C1277.7,161.9,1277.8,163.5,1280.1,163.9z M1275.9,161.1c-3.6,4.7-8.1-1.5-12.6-2.1C1267.6,156.9,1272.3,160.3,1275.9,161.1z&#10;&#9;&#9; M1274.5,152.7c-2.9,0.8-5.2,2.2-8.4,2.8c1.7-2.9,5.2-4.1,7.7-6.3C1275.3,149.1,1274.1,151.7,1274.5,152.7z M1276.6,148.6&#10;&#9;&#9;c2.1,0.5-0.7,1.5,0,2.8C1274.9,151.2,1276.4,149,1276.6,148.6z M1277.3,152c-0.3-1.7,1.3-1.5,0.7-3.5c4.7-2.3,8.7-0.5,13.9,0&#10;&#9;&#9;C1288.7,151.3,1283.5,152.2,1277.3,152z M1297.5,147.2C1297.6,148,1296.5,147.6,1297.5,147.2&#10;&#9;&#9;C1297.5,146.3,1298.5,146.7,1297.5,147.2z M1177.6,147.2c0.1-1,0.1-2-0.7-2.1C1176.8,146.1,1176.8,147,1177.6,147.2z M1183.9,163.9&#10;&#9;&#9;c-0.1,1-0.1,2,0.7,2.1C1184.6,165,1184.7,164,1183.9,163.9z M1185.3,158.3c-0.6-0.1-0.7,0.3-0.7,0.7&#10;&#9;&#9;C1185,159,1185.4,158.9,1185.3,158.3z M1194.3,149.3h-0.7c0.1,0.6-0.3,0.7-0.7,0.7c0.2,1.3-0.8,1.5-0.7,2.8&#10;&#9;&#9;C1193.6,152.3,1194.1,150.9,1194.3,149.3z M1181.1,158.3c-0.2-2,0.2-2.4,1.4-1.4c0.4-2.5-2.5-1.7-2.1-4.2c1.4,0,0.9,1.9,2.8,1.4&#10;&#9;&#9;c-0.5-1.5-3.3-2.3-1.4-4.2c-2-1.1,1-3.1,0-5.6c-1.1,1.5-1.4,3.7-1.4,6.3c-0.9-0.2-1.1-1.2-2.1-1.4c0.6,2.4,2,2.3,0,4.2&#10;&#9;&#9;c1.3,0,1.5,0.5,0.7,1.4c0.5,0.2,0.8,0.6,0.7,1.4C1180.8,156.2,1180.1,158.2,1181.1,158.3z M1183.2,162.5v1.4h0.7&#10;&#9;&#9;C1184,163.1,1183.7,162.7,1183.2,162.5z M1190.8,157.6C1191.5,154.7,1188.7,157.5,1190.8,157.6L1190.8,157.6z M1227.1,158.3&#10;&#9;&#9;c0.8,0.1,1.2-0.2,1.4-0.7C1227.7,157.5,1227.2,157.8,1227.1,158.3z M1158.8,78.8C1158.3,77.8,1157.9,78.9,1158.8,78.8L1158.8,78.8z&#10;&#9;&#9; M1109.9,149.3c1,0.1,2,0.1,2.1-0.7C1111,148.5,1110.1,148.4,1109.9,149.3z M1107.1,150c1.1-0.1,2.7,0.3,2.8-0.7&#10;&#9;&#9;C1108.8,149.3,1107.3,148.9,1107.1,150z M1107.1,150C1106.1,150.4,1107.2,150.8,1107.1,150L1107.1,150z M1159.4,79.5&#10;&#9;&#9;c0.1-0.6-0.3-0.7-0.7-0.7C1158.6,79.4,1159,79.5,1159.4,79.5z M1160.8,81.6c2-2.2-1.4-9.9-1.4-2.1&#10;&#9;&#9;C1159.6,79.6,1160.5,82,1160.8,81.6z M1183.9,126.9c0.1-0.6-0.3-0.7-0.7-0.7C1183,126.8,1183.4,126.9,1183.9,126.9z M1109.2,146.5&#10;&#9;&#9;c0.6,0.4,1.1,0.7,2.1,0.7v-0.7C1110.8,146,1109.4,145.4,1109.2,146.5z M1119,150.7c0.6-0.4,1.1-0.7,2.1-0.7c-0.2-3-6.4-0.1-7-2.8&#10;&#9;&#9;c-0.5,2.1-1.5-0.7-2.8,0c0.1,0.6,0.7,0.7,0.7,1.4C1113.9,149.7,1118.6,148,1119,150.7z M1175.5,212c1.7-1.7-2.3-1.8-2.1-0.7&#10;&#9;&#9;C1173.4,211.3,1175.8,211.8,1175.5,212z M1317.1,144.4c1.1,2.8,3.5,4.4,4.2,7.7C1321.7,147.6,1319.3,146.1,1317.1,144.4z&#10;&#9;&#9; M1114.1,147.2c-0.4-1.2-0.4-2.9-1.4-3.5C1112.6,145.4,1112.6,147.1,1114.1,147.2z M1165.7,150.7V150&#10;&#9;&#9;C1164.9,150.1,1165.3,150.7,1165.7,150.7z M1159.4,149.3C1160.5,148.8,1159.4,148.4,1159.4,149.3L1159.4,149.3z M1159.4,149.3&#10;&#9;&#9;c-0.8-0.1-1.2,0.2-1.4,0.7C1158.9,150.1,1159.3,149.8,1159.4,149.3z M1167.1,152v-0.7h-0.7C1166.3,151.9,1166.7,152,1167.1,152z&#10;&#9;&#9; M1158.8,156.2C1159.2,157.2,1159.6,156.2,1158.8,156.2L1158.8,156.2z M1162.9,153.4c-0.1,0.8,0.2,1.2,0.7,1.4&#10;&#9;&#9;C1163.7,154,1163.5,153.6,1162.9,153.4z M1155.3,146.5C1155.4,143.4,1152.5,146.3,1155.3,146.5L1155.3,146.5z M1158.1,140.9&#10;&#9;&#9;C1159.1,140.5,1158,140,1158.1,140.9L1158.1,140.9z M1172.7,76.7c0.1-0.6-0.3-0.7-0.7-0.7C1171.9,76.6,1172.3,76.7,1172.7,76.7z&#10;&#9;&#9; M1174.1,79.5c0-0.7-0.9-0.5-1.4-0.7C1172.7,79.5,1173.6,79.4,1174.1,79.5z M1185.3,85.1c0.3-1.2-0.5-1.3-1.4-1.4&#10;&#9;&#9;C1184.2,84.3,1184.5,84.9,1185.3,85.1z M1154.6,138.1c-0.7,0-0.5,0.9-0.7,1.4C1154.5,139.5,1154.4,138.6,1154.6,138.1z&#10;&#9;&#9; M1153.2,141.6c-1.5-0.1-0.3,2.5-0.7,3.5C1154,145.2,1152.8,142.6,1153.2,141.6z M1153.9,139.5c-0.8,0.1-0.6,1.3-0.7,2.1&#10;&#9;&#9;C1154,141.5,1153.8,140.3,1153.9,139.5z M1159.4,145.1c0.4,0,0.8-0.1,0.7-0.7C1159.6,144.2,1159.5,144.6,1159.4,145.1z&#10;&#9;&#9; M1166.4,151.4v-0.7h-0.7C1165.6,151.2,1166,151.3,1166.4,151.4z M1136.4,169.5v-1.4h-7c-0.1,1.5,2.5,0.3,3.5,0.7&#10;&#9;&#9;c-0.6,1.5-3.3-0.3-3.5,1.6C1132.3,170.2,1132.9,169,1136.4,169.5z M1186.6,148.6h1.4C1187.9,147.7,1186.7,147.9,1186.6,148.6z&#10;&#9;&#9; M1128.8,167.4C1124.8,167.1,1127.7,170,1128.8,167.4L1128.8,167.4z M1183.2,154.1c-0.1,0.6,0.3,0.7,0.7,0.7&#10;&#9;&#9;C1184,154.2,1183.6,154.2,1183.2,154.1z M1177.6,147.2c-0.1,1-0.1,2,0.7,2.1C1178.3,148.3,1178.4,147.3,1177.6,147.2z&#10;&#9;&#9; M1135.7,175.8c0,0.7,0.9,0.5,1.4,0.7C1137.1,175.8,1136.3,175.9,1135.7,175.8z M1181.8,150h1.4v-1.4&#10;&#9;&#9;C1182.5,148.9,1181.9,149.2,1181.8,150z M1188,84.4c-0.1,0.8,0.2,1.2,0.7,1.4C1188.9,85,1188.6,84.6,1188,84.4z M1162.2,141.6&#10;&#9;&#9;C1161.8,140.6,1161.4,141.7,1162.2,141.6L1162.2,141.6z M1137.8,178.5v-0.7h-1.4C1136.5,178.5,1137.3,178.4,1137.8,178.5z&#10;&#9;&#9; M1144.8,171.6c-0.3-0.9-0.9-1.4-2.1-1.4C1143,171,1143.6,171.6,1144.8,171.6z M1072.3,108.8c-0.1,0.6,0.3,0.7,0.7,0.7&#10;&#9;&#9;C1073.1,108.9,1072.7,108.8,1072.3,108.8z M1223.6,131.8C1223.2,130.8,1222.8,131.9,1223.6,131.8L1223.6,131.8z M1222.9,124.2h-0.7&#10;&#9;&#9;c-1.3,1.4-2.6,5.9-4.2,2.8c0.8,2,0.1,5.4,1.4,7C1218.3,128.4,1222.2,127.8,1222.9,124.2z M1225.7,118.6c-0.5,0.6-0.8,1.6-0.7,2.8&#10;&#9;&#9;C1227.9,120.7,1225.5,110.8,1225.7,118.6z M1225,121.4c-1,0.6-2.2,1-2.1,2.8C1223.9,123.5,1225.1,123.1,1225,121.4z M1223.6,131.8&#10;&#9;&#9;c-0.1,0.6,0.3,0.7,0.7,0.7C1224.4,131.9,1224,131.9,1223.6,131.8z M1226.4,131.1c0.2,1.4-0.1,2.2-1.4,2.1c1.3,2.5,0,4,0,7&#10;&#9;&#9;c1.7-2,1.5-5.9,2.1-9.1H1226.4z M1224.3,132.5c-0.1,0.6,0.3,0.7,0.7,0.7C1225.1,132.6,1224.7,132.6,1224.3,132.5z M1209.7,150.7&#10;&#9;&#9;C1210.7,150.2,1209.6,149.8,1209.7,150.7L1209.7,150.7z M1209,145.1c-0.4,2.7-1.4,5.5-3.5,2.8c1.3,3.2,3.6,3.9,2.1,8.4&#10;&#9;&#9;c1.1-1,1.5-2.7,1.4-4.9C1206.5,150,1211.4,146.5,1209,145.1z M1209.7,150.7c-0.6-0.1-0.7,0.3-0.7,0.7&#10;&#9;&#9;C1209.6,151.5,1209.6,151.1,1209.7,150.7z M1219.4,144.4c-0.6-0.1-0.7,0.3-0.7,0.7C1219.3,145.2,1219.4,144.8,1219.4,144.4z&#10;&#9;&#9; M1217.3,140.2C1218.3,139.8,1217.3,139.3,1217.3,140.2L1217.3,140.2z M1251.5,105.3c-0.7,0-0.5,0.9-0.7,1.4&#10;&#9;&#9;C1251.5,106.7,1251.3,105.9,1251.5,105.3z M1237.6,133.2c-0.6-0.1-0.7,0.3-0.7,0.7C1237.5,134,1237.5,133.6,1237.6,133.2z&#10;&#9;&#9; M1239,131.1h-0.7c-0.4,0.6-0.7,1.1-0.7,2.1C1238.4,132.9,1239,132.3,1239,131.1z M1241,109.5C1240.8,106.8,1238,109.6,1241,109.5&#10;&#9;&#9;L1241,109.5z M1205.5,147.9C1205,146.8,1204.6,147.9,1205.5,147.9L1205.5,147.9z M1227.8,126.2c-1,0.9-0.7,3-0.7,4.9h0.7&#10;&#9;&#9;C1226.8,128.9,1229.5,126.9,1227.8,126.2z M1252.2,104.6c-0.6-0.1-0.7,0.3-0.7,0.7C1252.1,105.5,1252.2,105.1,1252.2,104.6z&#10;&#9;&#9; M1252.2,104.6C1254.9,104.4,1252.1,101.6,1252.2,104.6L1252.2,104.6z M1241,109.5c-0.1,0.6,0.3,0.7,0.7,0.7&#10;&#9;&#9;C1241.9,109.6,1241.5,109.5,1241,109.5z M1238.3,122.1c-2.9-0.5,0.9,2.7-2.1,2.8c-0.1-1.3-0.5-2.3-1.4-2.8c0.1,3,2.5,4.7,0.7,7.7&#10;&#9;&#9;c1.4-1.4,2.8-2.8,4.2-4.2C1236.1,126.9,1238.7,124.9,1238.3,122.1z M1229.9,141.6c0.5-2.6-1.2-3-0.7-5.6&#10;&#9;&#9;C1226.7,136.5,1229.1,140.2,1229.9,141.6z M1225,140.2c-1.5-0.1-0.3,2.5-0.7,3.5C1225.8,143.8,1224.6,141.2,1225,140.2z&#10;&#9;&#9; M1239.7,130.4c-0.6-0.1-0.7,0.3-0.7,0.7C1239.5,131.3,1239.6,130.9,1239.7,130.4z M1241.7,129c-1.2,0-1.8,0.5-2.1,1.4&#10;&#9;&#9;C1240.8,130.5,1241.5,129.9,1241.7,129z M1241.7,129C1245.4,129.8,1242.6,126.9,1241.7,129L1241.7,129z M1219.4,144.4&#10;&#9;&#9;C1220.4,143.9,1219.4,143.5,1219.4,144.4L1219.4,144.4z M1211.1,109.5c-1.6-0.2-2.6,0.2-2.8,1.4&#10;&#9;&#9;C1209.6,110.8,1210.6,110.4,1211.1,109.5z M1208.3,110.9h-0.7c-0.4,0.6-0.7,1.1-0.7,2.1C1207.7,112.7,1208.3,112.1,1208.3,110.9z&#10;&#9;&#9; M1219.4,118.6c-0.6-0.1-0.7,0.3-0.7,0.7C1219.3,119.4,1219.4,119,1219.4,118.6z M1206.2,118.6&#10;&#9;&#9;C1209.1,119.2,1206.3,116.5,1206.2,118.6L1206.2,118.6z M1209,104.6c-0.2,0.8-1.4,0.5-1.4,1.4C1209,106.8,1210.9,104.9,1209,104.6z&#10;&#9;&#9; M1206.9,113c-0.6-0.1-0.7,0.3-0.7,0.7C1206.8,113.8,1206.8,113.4,1206.9,113z M1197.1,108.8C1199.2,108,1196.4,105.1,1197.1,108.8&#10;&#9;&#9;L1197.1,108.8z M1221.5,96.3C1224.6,96.4,1221.7,93.5,1221.5,96.3L1221.5,96.3z M1220.1,95.6c-0.9,0.7-2.6,0.7-2.8,2.1&#10;&#9;&#9;c1.2-0.6,3.5-0.2,4.2-1.4C1220.7,96.4,1220.3,96.1,1220.1,95.6z M1217.3,97.7h-5.6C1212.1,98.8,1217,98.8,1217.3,97.7z&#10;&#9;&#9; M1197.1,108.8c-0.7,0-0.5,0.9-0.7,1.4C1197.1,110.2,1197,109.3,1197.1,108.8z M1206.2,118.6c-5.4,1.9-1.3-3.5,0-4.9&#10;&#9;&#9;c-2.5,1.7-0.7-2.9-2.1-2.1c-1.2,0.7-0.1,10-3.5,9.8v0.7C1203,121.4,1204.3,119.7,1206.2,118.6z M1200.6,108.1&#10;&#9;&#9;C1201.6,107.7,1200.5,107.3,1200.6,108.1L1200.6,108.1z M1207.6,106c-1.2,0-1.8,0.5-2.1,1.4C1206.7,107.4,1207.3,106.9,1207.6,106z&#10;&#9;&#9; M1213.8,114.4c-0.6-0.1-0.7,0.3-0.7,0.7C1213.7,115.2,1213.8,114.8,1213.8,114.4z M1215.2,115.1&#10;&#9;&#9;C1216.3,114.7,1215.2,114.2,1215.2,115.1L1215.2,115.1z M1220.8,113.7C1223.7,114.4,1221,111.6,1220.8,113.7L1220.8,113.7z&#10;&#9;&#9; M1215.2,115.1c-0.8,0.1-0.6,1.3-0.7,2.1C1215.4,117.1,1215.1,115.9,1215.2,115.1z M1219.4,118.6&#10;&#9;&#9;C1220.4,118.1,1219.4,117.7,1219.4,118.6L1219.4,118.6z M1220.8,113.7c-0.9-0.2-1.1-1.2-2.1-1.4c-1.6,2.4,1.5,2.3,0,4.2&#10;&#9;&#9;C1220.6,116.7,1220.5,115,1220.8,113.7z M1211.1,113.7C1212.1,113.3,1211,112.8,1211.1,113.7L1211.1,113.7z M1213.8,114.4&#10;&#9;&#9;C1214.9,114,1213.8,113.5,1213.8,114.4L1213.8,114.4z M1197.8,124.8h-0.7c-0.4,0.6-0.7,1.1-0.7,2.1&#10;&#9;&#9;C1197.3,126.6,1197.8,126,1197.8,124.8z M1184.6,127.6c0.1-0.6-0.3-0.7-0.7-0.7C1183.7,127.5,1184.1,127.6,1184.6,127.6z&#10;&#9;&#9; M1211.1,113.7h-0.7c0.2,1.6-0.1,2.7-0.7,3.5h1.4V113.7z M1200.6,122.1c-0.4,0-0.8-0.6,0-0.7c-0.1-1.1,0.3-2.7-0.7-2.8&#10;&#9;&#9;c-0.4,2-1,3.6-1.4,5.6C1199.5,123.8,1200.2,123.1,1200.6,122.1z M1198.5,124.2c-0.6-0.1-0.7,0.3-0.7,0.7&#10;&#9;&#9;C1198.4,125,1198.5,124.6,1198.5,124.2z M1321.9,136C1324,135.9,1321.3,133.1,1321.9,136L1321.9,136z M1273.1,126.2&#10;&#9;&#9;c0.1,1.5,3,0.3,4.2,0.7c-0.1-0.6-0.7-0.7-0.7-1.4C1275.8,126.1,1274.7,126.5,1273.1,126.2z M1321.9,136h-0.7&#10;&#9;&#9;c-0.2,1.4-1.9,1.4-2.1,2.8C1320.9,138.7,1321.9,137.8,1321.9,136z M1319.2,138.8c-0.6-0.1-0.7,0.3-0.7,0.7&#10;&#9;&#9;C1319,139.6,1319.1,139.2,1319.2,138.8z M1278,122.1c-1,0.6-1,2.2-1.4,3.5C1278.1,125.4,1278.1,123.8,1278,122.1z M1280.8,124.8&#10;&#9;&#9;c-0.9-1.7-2,2.1-3.5,2.1c0,0.7,0.9,0.5,1.4,0.7C1278.9,126.2,1280.6,126.3,1280.8,124.8z M1310.1,138.1&#10;&#9;&#9;C1312.2,136.6,1309.3,133.6,1310.1,138.1L1310.1,138.1z M1285,117.9c0.2,4.6-0.9,7.9-2.8,10.5c-1.7,0.3-1.5-1.3-3.5-0.7&#10;&#9;&#9;c4.7,0.8,4.7,4.9,2.8,9.1c2.2-2,2.3-6,3.5-9.1h-0.7c0,0.4-0.6,0.8-0.7,0h0.7c1.2-4.2,1.6-9.1,2.8-13.3h-0.7&#10;&#9;&#9;c-0.7,1.8-2.8,2.3-3.5,4.2C1283.8,118.6,1284.4,118.2,1285,117.9C1284.9,117,1286,117.4,1285,117.9z M1305.2,137.4&#10;&#9;&#9;c1.7-0.1,2.2,1.1,3.5,1.4C1309.2,137.1,1305.7,135.8,1305.2,137.4z M1311.5,133.2C1311.1,132.2,1310.6,133.3,1311.5,133.2&#10;&#9;&#9;L1311.5,133.2z M1317.1,135.3c-0.6,0.3-1.2,0.6-1.4,1.4C1319.9,137.3,1316.5,127.6,1317.1,135.3z M1315.7,136.7&#10;&#9;&#9;c-1.2,0-1.8,0.5-2.1,1.4C1314.8,138.1,1315.4,137.6,1315.7,136.7z M1311.5,133.2c-0.1,1-0.1,2,0.7,2.1&#10;&#9;&#9;C1312.2,134.3,1312.3,133.3,1311.5,133.2z M1299.6,144.4c-0.6-0.1-0.7,0.3-0.7,0.7C1299.5,145.2,1299.6,144.8,1299.6,144.4z&#10;&#9;&#9; M1181.1,138.1c-0.2-1.5-2.4,0.7-2.1,2.1C1180,139.8,1180.7,139.1,1181.1,138.1z M1179,140.2c-0.6-0.1-0.7,0.3-0.7,0.7&#10;&#9;&#9;C1178.9,141,1178.9,140.6,1179,140.2z M1209.7,117.2c-0.9,0.2-0.6,1.7-0.7,2.8C1210,119.8,1209.6,118.3,1209.7,117.2z&#10;&#9;&#9; M1185.3,128.3c0.1-0.6-0.3-0.7-0.7-0.7C1184.4,128.2,1184.8,128.3,1185.3,128.3z M1250.8,106.7h-0.7c0.3,2.2-1.3,2.5-0.7,4.9h0.7&#10;&#9;&#9;C1249.8,109.4,1251.4,109.1,1250.8,106.7z M1210.4,123.5c1.8,0.8,3.6-2.4,3.5,0.7c1.2-0.4,4.1,0.8,4.2-0.7c-1,0.1-2,0.1-2.1-0.7&#10;&#9;&#9;c1,0,5.7,0.3,3.5-0.7c-1,0.1-2,0.1-2.1-0.7c0.6-1.7,5.5,0.8,4.9-2.1c-1.7-0.3-1.5,1.3-3.5,0.7v-0.7c-1.7-0.1-0.2-2.4,0-2.8&#10;&#9;&#9;c-0.9-0.2-1.1-1.2-2.1-1.4c0.9,2.2,1.4,6.5-1.4,7c0.1,0.8-1,0.4,0,0c-2-0.8-1.4-3.1-0.7-4.9c-0.9-0.3-1.4-0.9-1.4-2.1&#10;&#9;&#9;c-0.9,0.2-0.6,1.7-0.7,2.8c0.7,0,0.9,1.2,0,1.4v-1.4c-0.6-0.1-0.7-0.7-1.4-0.7C1212.1,119.8,1213.1,121.9,1210.4,123.5z&#10;&#9;&#9; M1279.4,115.1c0.6,0.1,0.7-0.3,0.7-0.7h-0.7V115.1z M1232.7,133.2c0.6,0.1,0.7-0.3,0.7-0.7&#10;&#9;&#9;C1232.8,132.4,1232.7,132.8,1232.7,133.2z M1280.1,114.4c1.4-0.5,5-2.4,2.8-4.2c-0.6,1.7-2.4,2.2-3.5,3.5&#10;&#9;&#9;C1279.8,113.7,1280.2,113.8,1280.1,114.4z M1198.5,136c-0.6-0.1-0.7,0.3-0.7,0.7C1198.4,136.8,1198.5,136.4,1198.5,136z&#10;&#9;&#9; M1198.5,136c1.8-0.1,2.4-1.3,3.5-2.1C1201.5,132.6,1198.8,134.9,1198.5,136z M1197.8,131.1c-1.6,0.3-3.2,4.2-1.4,5.6&#10;&#9;&#9;C1195.8,133.8,1197.8,133.4,1197.8,131.1z M1185.9,129c0.1-0.6-0.3-0.7-0.7-0.7C1185.1,128.9,1185.5,129,1185.9,129z M1269.6,106.7&#10;&#9;&#9;C1269.2,105.7,1268.8,106.8,1269.6,106.7L1269.6,106.7z M1252.2,126.2c-0.6-0.1-0.7,0.3-0.7,0.7&#10;&#9;&#9;C1252.1,127.1,1252.2,126.7,1252.2,126.2z M1261.3,118.6c-1.2,0-1.8,0.5-2.1,1.4C1260.4,120,1261,119.4,1261.3,118.6z&#10;&#9;&#9; M1268.9,111.6c-0.1,0.6,0.3,0.7,0.7,0.7C1269.8,111.7,1269.4,111.6,1268.9,111.6z M1268.9,111.6&#10;&#9;&#9;C1268.7,108.9,1265.9,111.7,1268.9,111.6L1268.9,111.6z M1253.6,124.8h-1.4v1.4C1252.8,125.9,1253.5,125.6,1253.6,124.8z&#10;&#9;&#9; M1263.4,117.2c-1.2,0-1.8,0.5-2.1,1.4C1262.5,118.6,1263.1,118.1,1263.4,117.2z M1257.8,113.7c-0.8,2.6-3.7,3.3-2.8,7.7&#10;&#9;&#9;c0.5-3.2,2.8-4.6,3.5-7.7H1257.8z M1251.5,117.9c-0.1,1.7,1.1,2.2,2.1,2.8C1253.7,118.9,1252.5,118.5,1251.5,117.9z M1252.2,124.8&#10;&#9;&#9;C1252,122.1,1249.1,125,1252.2,124.8L1252.2,124.8z M1259.2,112.3C1260.2,111.9,1259.1,111.5,1259.2,112.3L1259.2,112.3z&#10;&#9;&#9; M1300.3,143.7c-0.6-0.1-0.7,0.3-0.7,0.7C1300.2,144.5,1300.3,144.1,1300.3,143.7z M1259.2,112.3c-0.7,0-0.5,0.9-0.7,1.4&#10;&#9;&#9;C1259.2,113.7,1259,112.8,1259.2,112.3z M1255,121.4c-0.6-0.1-0.7-0.7-1.4-0.7c0.6,2,0.6,2.1,0,4.2&#10;&#9;&#9;C1255.1,124.7,1255.1,123.1,1255,121.4z M1277.3,131.8c-1.3,0.1-2.3,0.5-2.8,1.4C1276.1,133.4,1277.1,133.1,1277.3,131.8z&#10;&#9;&#9; M1266.8,135.3c2.2-1,6.2-0.3,7.7-2.1C1271.9,133.9,1267.9,133.1,1266.8,135.3z M1279.4,140.2c0.8-1,2-1.7,2.1-3.5h-0.7&#10;&#9;&#9;C1280.5,138,1278.8,138,1279.4,140.2z M1279.4,140.2C1277.3,143.2,1280.3,146.2,1279.4,140.2L1279.4,140.2z M1301,141.6&#10;&#9;&#9;c-0.4,0.6-0.7,1.1-0.7,2.1h0.7C1301.5,143.1,1302.1,141.8,1301,141.6z M1299.6,138.8C1301.7,138.7,1299,135.9,1299.6,138.8&#10;&#9;&#9;L1299.6,138.8z M1289.9,111.6c-1.2-0.3-1.3,0.5-1.4,1.4C1289.1,112.7,1289.7,112.4,1289.9,111.6z M1269.6,106.7&#10;&#9;&#9;c0,1.2,0.5,1.8,1.4,2.1C1271.1,107.6,1270.5,107,1269.6,106.7z M1285,127.6C1287.1,127.5,1284.3,124.7,1285,127.6L1285,127.6z&#10;&#9;&#9; M1289.9,111.6c1.7-0.4,2.9-1.3,4.2-2.1C1291.6,109.1,1290.5,110.1,1289.9,111.6z M1287.8,113.7c-0.6-0.1-0.7,0.3-0.7,0.7&#10;&#9;&#9;C1287.7,114.5,1287.7,114.1,1287.8,113.7z M1288.5,113c-0.6-0.1-0.7,0.3-0.7,0.7C1288.4,113.8,1288.4,113.4,1288.5,113z" style="fill: rgb(67, 59, 46); opacity: 1; stroke: rgb(3, 192, 60); stroke-width: 4; paint-order: stroke; stroke-opacity: 1; fill-opacity: 1;" transform="matrix(1, 0, 0, 1, -5.684341886080802e-14, 0)"/></g></svg>