<svg width="225" height="176" viewBox="0 0 225 176" fill="none" xmlns="http://www.w3.org/2000/svg">
<path d="M181.25 163C184.375 163 187.5 166.125 187.5 169.25C187.5 172.766 184.375 175.5 181.25 175.5H37.5C16.4062 175.5 0 159.094 0 138V31.75C0 28.625 2.73438 25.5 6.25 25.5C9.375 25.5 12.5 28.625 12.5 31.75V138C12.5 152.062 23.4375 163 37.5 163H181.25ZM87.5 47.375C82.0312 47.375 78.125 43.4688 78.125 38C78.125 32.9219 82.0312 28.625 87.5 28.625C92.5781 28.625 96.875 32.9219 96.875 38C96.875 43.4688 92.5781 47.375 87.5 47.375ZM160.156 42.6875L197.656 95.0312C200.391 98.9375 200.391 103.625 198.438 107.141C196.094 111.047 192.188 113 187.891 113H86.7188C82.4219 113 78.125 110.656 76.1719 107.141C74.2188 103.234 74.6094 98.1562 77.3438 94.6406L102.344 63.3906C106.641 57.5312 116.797 57.5312 121.094 63.3906L123.828 66.9062L141.016 42.6875C145.312 36.4375 155.859 36.8281 160.156 42.6875ZM88.2812 100.5H186.328L150 50.1094L128.906 80.9688C125.781 85.2656 120.312 83.3125 118.75 80.9688L110.938 71.2031L88.2812 100.5ZM200 0.5C213.672 0.5 225 11.8281 225 25.5V113C225 127.062 213.672 138 200 138H62.5C48.4375 138 37.5 127.062 37.5 113V25.5C37.5 11.8281 48.4375 0.5 62.5 0.5H200ZM212.5 113V25.5C212.5 18.8594 206.641 13 200 13H62.5C55.4688 13 50 18.8594 50 25.5V113C50 120.031 55.4688 125.5 62.5 125.5H200C206.641 125.5 212.5 120.031 212.5 113Z" fill="#03C03C"/>
</svg>
