<svg width="233" height="200" viewBox="0 0 233 200" fill="none" xmlns="http://www.w3.org/2000/svg">
<path d="M79.375 21.875C79.375 33.9844 69.2188 43.75 57.5 43.75C45.3906 43.75 35.625 33.9844 35.625 21.875C35.625 10.1562 45.3906 0 57.5 0C69.2188 0 79.375 10.1562 79.375 21.875ZM57.5 12.5C52.0312 12.5 48.125 16.7969 48.125 21.875C48.125 27.3438 52.0312 31.25 57.5 31.25C62.5781 31.25 66.875 27.3438 66.875 21.875C66.875 16.7969 62.5781 12.5 57.5 12.5ZM38.75 200C35.2344 200 32.5 197.266 32.5 193.75V79.2969L12.9688 115.625C11.0156 118.75 7.5 119.922 4.375 118.359C1.25 116.406 0.078125 112.891 1.64062 109.766L24.6875 66.7969C30.1562 56.6406 40.7031 50 52.4219 50H107.5V18.75C107.5 8.59375 115.703 0 126.25 0H213.75C223.906 0 232.5 8.59375 232.5 18.75V106.25C232.5 116.797 223.906 125 213.75 125H126.25C115.703 125 107.5 116.797 107.5 106.25V75H120V106.25C120 109.766 122.734 112.5 126.25 112.5H213.75C216.875 112.5 220 109.766 220 106.25V18.75C220 15.625 216.875 12.5 213.75 12.5H126.25C122.734 12.5 120 15.625 120 18.75V50H138.75C141.875 50 145 53.125 145 56.25C145 59.7656 141.875 62.5 138.75 62.5H82.5V193.75C82.5 197.266 79.375 200 76.25 200C72.7344 200 70 197.266 70 193.75V137.5H45V193.75C45 197.266 41.875 200 38.75 200ZM52.4219 62.5C49.6875 62.5 46.9531 63.2812 45 64.0625V125H70V62.5H52.4219Z" fill="#03C03C"/>
</svg>
