<svg width="204" height="202" viewBox="0 0 204 202" fill="none" xmlns="http://www.w3.org/2000/svg">
<path d="M183.141 66.4531L119.859 129.734C128.844 152 127.672 177.391 115.953 199.266C115.172 201.219 112.828 202 110.875 202C109.312 202 107.75 201.609 106.578 200.438L59.3125 153.172L49.5469 162.938C50.7188 165.281 51.5 168.016 51.5 170.75C51.5 181.297 42.9062 189.5 32.75 189.5C22.2031 189.5 14 181.297 14 170.75C14 160.594 22.2031 152 32.75 152C35.4844 152 38.2188 152.781 40.5625 153.953L50.3281 144.188L3.0625 96.9219C0.328125 94.1875 0.71875 89.1094 4.625 87.1562C16.7344 80.5156 30.0156 77 43.6875 77C53.8438 77 64.3906 78.9531 74.1562 82.8594L137.047 20.3594C144.078 12.9375 156.578 12.9375 163.609 20.3594L183.141 39.8906C190.562 47.3125 190.562 59.0312 183.141 66.4531ZM32.3594 177C35.875 177 38.6094 173.875 38.6094 170.75C38.6094 167.234 35.4844 164.5 32.3594 164.5C29.625 164.5 26.5 167.234 26.5 170.75C26.5 173.875 29.2344 177 32.3594 177ZM108.922 185.203C119.078 159.422 113.219 130.125 93.2969 110.203C80.0156 96.9219 62.4375 89.5 43.6875 89.5C35.0938 89.5 26.1094 91.4531 18.2969 94.5781L108.922 185.203ZM114.391 117.625L174.547 57.4688C176.891 55.125 176.891 51.2188 174.547 48.875L154.625 28.9531C152.281 26.6094 148.375 26.6094 146.031 28.9531L85.875 88.7188C91.7344 92.2344 97.2031 96.5312 101.891 101.219C106.969 106.297 110.875 111.766 114.391 117.625ZM196.031 101.219C203.062 108.25 203.062 119.969 196.031 127.391L164 159.422C160.484 162.938 155.797 164.5 150.719 164.5C146.031 164.5 141.344 162.938 137.828 159.422C135.484 156.688 135.484 152.781 137.828 150.438C140.172 148.094 144.078 148.094 146.422 150.438C148.766 152.781 152.672 152.781 155.016 150.438L187.047 118.406C188.219 117.234 189 116.062 189 114.109C189 112.547 188.219 110.984 187.047 109.812L178.062 100.047C175.719 97.7031 175.719 93.7969 178.453 91.4531C180.797 89.1094 184.703 89.1094 187.047 91.8438L196.031 101.219ZM48.7656 67.625C47.2031 67.625 45.6406 66.8438 44.0781 65.6719C37.0469 58.6406 37.0469 46.9219 44.0781 39.5L76.1094 7.46875C83.1406 0.4375 95.25 0.4375 102.281 7.46875L111.656 16.4531C114.391 18.7969 114.391 22.7031 112.047 25.0469C109.703 27.7812 105.797 27.7812 103.453 25.4375L93.6875 16.4531C90.9531 14.1094 87.4375 14.1094 85.0938 16.4531L53.0625 48.4844C51.8906 49.6562 51.5 50.8281 51.5 52.7812C51.5 54.3438 51.8906 55.9062 53.0625 57.0781C55.4062 59.4219 55.4062 63.3281 53.0625 65.6719C51.8906 66.8438 50.3281 67.625 48.7656 67.625Z" fill="#03C03C"/>
</svg>
