<svg width="201" height="176" viewBox="0 0 201 176" fill="none" xmlns="http://www.w3.org/2000/svg">
<path d="M31.75 25.5C76.2812 25.5 113 62.2188 113 106.75V169.25C113 172.766 109.875 175.5 106.75 175.5C103.234 175.5 100.5 172.766 100.5 169.25V113H81.75C36.8281 113 0.5 76.6719 0.5 31.75C0.5 28.625 3.23438 25.5 6.75 25.5H31.75ZM81.75 100.5H100.109C96.9844 65.7344 67.2969 38 31.75 38H13C16.125 73.1562 45.8125 100.5 81.75 100.5ZM194.25 0.5C197.375 0.5 200.5 3.625 200.5 6.75C200.5 48.9375 167.688 84.4844 125.891 88C125.5 88 125.5 88 125.109 88C121.984 88 119.25 85.6562 119.25 82.1406C118.859 78.625 121.203 75.8906 124.719 75.5C157.922 72.7656 184.484 45.8125 187.609 13H169.25C146.984 13 126.281 23.9375 113.391 41.9062C111.047 44.6406 107.141 45.4219 104.406 43.0781C101.672 41.125 100.891 37.2188 103.234 34.4844C118.469 13.3906 143.078 0.5 169.25 0.5H194.25Z" fill="#03C03C"/>
</svg>
