<svg width="253" height="201" viewBox="0 0 253 201" fill="none" xmlns="http://www.w3.org/2000/svg">
<path d="M128.453 119.75L147.203 140.453C151.109 144.359 151.891 150.609 149.547 155.688C147.203 160.375 142.125 163.5 136.266 163.5H82.3594V194.75C82.3594 198.266 79.2344 201 76.1094 201C72.9844 201 69.8594 198.266 69.8594 194.75V163.5H15.9531C10.0938 163.5 5.01562 160.375 2.67188 155.688C0.328125 150.609 1.10938 144.75 5.01562 140.453L24.1562 119.75C18.6875 119.359 14.3906 116.234 12.0469 111.156C9.70312 105.688 10.4844 99.8281 14 95.1406L37.4375 69.75C33.1406 68.5781 29.2344 65.4531 27.2812 61.1562C25.3281 56.4688 26.1094 50.2188 30.0156 46.3125L67.5156 4.90625C72.2031 0.21875 80.7969 0.21875 85.0938 4.90625L122.594 46.3125C126.5 50.2188 127.281 56.4688 124.938 61.5469C123.375 65.8438 119.469 68.5781 115.172 69.75L137.828 95.1406C141.734 99.8281 142.516 105.688 140.172 111.156C138.219 116.234 133.531 119.359 128.453 119.75ZM136.656 151C137.828 151 139.391 149.828 138.609 149.047L99.9375 107.25H127.281C129.234 107.25 130.016 104.906 128.844 102.953L87.0469 57.25H112.047C113.609 57.25 114.391 55.6875 113.219 54.5156L75.7188 13.5L39.3906 54.5156C38.2188 55.6875 39 57.25 40.5625 57.25H65.5625L23.375 103.344C22.5938 104.516 23.375 107.25 25.3281 107.25H52.6719L14 149.047C13.2188 149.828 14.3906 151 15.9531 151H70.25V122.094L52.6719 98.6562C50.3281 95.9219 51.1094 92.0156 53.8438 90.0625C56.5781 87.7188 60.4844 88.5 62.4375 91.2344L70.25 101.391V69.75C70.25 66.625 72.9844 63.5 76.5 63.5C79.625 63.5 82.75 66.625 82.75 69.75V123.656L90.5625 115.453C92.9062 113.109 97.2031 113.109 99.5469 115.453C101.891 117.797 101.891 122.094 99.5469 124.438L82.75 141.234V151H136.656ZM247.594 140.453C251.5 144.359 252.281 150.609 249.938 155.688C247.594 160.375 242.516 163.5 236.656 163.5H182.75V194.75C182.75 198.266 179.234 201 176.5 201C173.375 201 170.25 198.266 170.25 194.75V122.094L153.062 98.6562C150.719 95.9219 151.5 92.0156 154.234 90.0625C156.969 87.7188 160.875 88.5 162.828 91.2344L170.25 101.391V69.75C170.25 66.625 172.984 63.5 176.5 63.5C179.625 63.5 182.75 66.625 182.75 69.75V123.656L190.562 115.453C192.906 113.109 197.203 113.109 199.547 115.453C201.891 117.797 201.891 122.094 199.547 124.438L182.75 141.234V151H236.656C237.828 151 239.391 149.828 238.609 149.047L199.938 107.25H227.281C229.234 107.25 230.016 104.906 228.844 102.953L187.047 57.25H212.047C213.609 57.25 214.391 55.6875 213.219 54.9062L175.719 13.5L149.938 42.7969C147.594 45.5312 143.688 45.5312 140.953 43.1875C138.609 40.8438 138.219 36.9375 140.562 34.5938L167.516 4.90625C172.203 0.21875 180.406 0.21875 185.094 4.90625L222.594 46.3125C226.5 50.2188 227.281 56.4688 224.938 61.5469C223.375 65.8438 219.469 68.5781 215.172 69.75L238.219 95.1406C242.125 99.8281 242.906 105.688 240.562 111.156C238.219 116.234 233.922 119.359 228.844 119.75L247.594 140.453Z" fill="#03C03C"/>
</svg>
